<svg xmlns="http://www.w3.org/2000/svg" width="292" height="48" viewBox="0 0 292 48">
  <path d="M187.781647,34.6842353 L187.781647,18.5929412 L194.953412,18.5929412 L194.953412,11.2658824 L187.781647,11.2658824 L187.781647,0.660705882 L180.321882,0.660705882 L180.321882,5.86164706 C180.321882,8.91952941 178.687059,11.2658824 174.996706,11.2658824 L173.223529,11.2658824 L173.223529,18.5957647 L179.613176,18.5957647 L179.613176,36.0367059 C179.613176,42.5195294 183.588706,46.3567059 189.986824,46.3567059 C192.968471,46.3567059 194.532706,45.7835294 195.024,45.5774118 L195.024,38.7501176 C194.085538,38.9225348 193.13468,39.0188481 192.180706,39.0381176 C189.131294,39.0381176 187.781647,37.7449412 187.781647,34.6870588 L187.781647,34.6842353 Z M229.863529,23.1529412 C229.863529,16.2465882 225.820235,10.1985882 215.161412,10.1985882 C206.637176,10.1985882 201.244235,15.5350588 200.606118,21.5152941 L208.133647,23.2207059 C208.489412,19.728 210.900706,16.9552941 215.229176,16.9552941 C219.775059,16.9552941 221.765647,19.3044706 221.765647,22.224 C221.765647,23.4381176 221.195294,24.4348235 219.207529,24.7087059 L210.330353,26.064 C204.434824,26.9195294 199.886118,30.3331765 199.886118,36.528 C199.886118,42.0141176 204.355765,46.9948235 211.609412,46.9948235 C217.219765,46.9948235 220.633412,44.1430588 222.256941,41.5115294 C222.256941,44.2927059 222.542118,45.7129412 222.612706,45.9190588 L230.278588,45.9190588 C230.210824,45.5661176 229.855059,43.5021176 229.855059,40.3651765 L229.855059,23.1529412 L229.866353,23.1529412 L229.863529,23.1529412 Z M221.765647,31.5557647 C221.765647,38.3237647 217.790118,40.5232941 213.173647,40.5232941 C209.906824,40.5232941 208.133647,38.3915294 208.133647,36.0338824 C208.133647,33.1821176 210.192,31.7647059 212.750118,31.3383529 L221.774118,29.9887059 L221.774118,31.5557647 L221.765647,31.5557647 L221.765647,31.5557647 Z M247.973647,34.6842353 L247.973647,18.5929412 L255.148235,18.5929412 L255.148235,11.2658824 L247.976471,11.2658824 L247.976471,0.660705882 L240.513882,0.660705882 L240.513882,5.86164706 C240.513882,8.91952941 238.879059,11.2658824 235.188706,11.2658824 L233.409882,11.2658824 L233.409882,18.5957647 L239.805176,18.5957647 L239.805176,36.0367059 C239.805176,42.5195294 243.780706,46.3567059 250.178824,46.3567059 C253.160471,46.3567059 254.724706,45.7835294 255.218824,45.5774118 L255.218824,38.7501176 C254.279431,38.9226739 253.327624,39.0189877 252.372706,39.0381176 C249.323294,39.0381176 247.973647,37.7449412 247.973647,34.6870588 L247.973647,34.6842353 Z M292.156235,28.2127059 C292.156235,17.2517647 285.904941,10.1985882 275.257412,10.1985882 C266.515765,10.1985882 258.429176,17.4607059 258.429176,28.4188235 C258.429176,40.1675294 266.733176,46.9976471 276.112941,46.9976471 C284.419765,46.9976471 289.891765,42.0847059 291.741176,36.0338824 L284.784,33.8258824 C283.651765,37.2395294 281.093647,39.8738824 276.121412,39.8738824 C271.005176,39.8738824 266.888471,36.1044706 266.673882,30.8385882 L291.958588,30.8385882 C292.006588,30.6974118 292.156235,29.5651765 292.156235,28.2127059 L292.156235,28.2127059 Z M266.871529,24.7877647 C267.156706,21.0889412 270.138353,17.1049412 275.325176,17.1049412 C281.003294,17.1049412 283.711059,20.7331765 283.849412,24.7877647 L266.871529,24.7877647 Z M31.44,23.1247059 C31.44,16.2268235 27.3967059,10.1788235 16.7576471,10.1788235 C8.24470588,10.1788235 2.84894118,15.5152941 2.21082353,21.4842353 L9.72988235,23.1896471 C10.0828235,19.7082353 12.4969412,16.9355294 16.8254118,16.9355294 C21.3628235,16.9355294 23.3505882,19.2847059 23.3505882,22.1957647 C23.3505882,23.3985882 22.7802353,24.3952941 20.7924706,24.6804706 L11.9265882,26.0329412 C6.03952941,26.88 1.49082353,30.2964706 1.49082353,36.4884706 C1.49082353,41.9661176 5.96047059,46.9468235 13.2028235,46.9468235 C18.8047059,46.9468235 22.2183529,44.1063529 23.8418824,41.4691765 C23.8418824,44.2531765 24.1270588,45.6734118 24.1976471,45.8795294 L31.8550588,45.8795294 C31.7844706,45.5265882 31.4315294,43.4625882 31.4315294,40.3369412 L31.4315294,23.1218824 L31.44,23.1218824 L31.44,23.1247059 Z M23.3505882,31.5162353 C23.3505882,38.2757647 19.3750588,40.4752941 14.7670588,40.4752941 C11.5002353,40.4752941 9.72988235,38.3435294 9.72988235,35.9943529 C9.72988235,33.1425882 11.7854118,31.7251765 14.3463529,31.2988235 L23.3534118,29.9491765 L23.3534118,31.5162353 L23.3505882,31.5162353 Z M54.3529412,39.408 C49.1774118,39.408 44.6964706,35.5030588 44.6964706,28.5289412 C44.6964706,21.5632941 49.1661176,17.7938824 54.2061176,17.7938824 C59.4607059,17.7938824 61.7929412,21.2103529 62.5807059,24.2654118 L69.9614118,21.5632941 C68.544,16.0207059 63.4390588,10.1788235 54.1355294,10.1788235 C44.2051765,10.1788235 36.4715294,17.8644706 36.4715294,28.5289412 C36.4715294,39.0550588 44.208,46.9468235 54.3529412,46.9468235 C63.4362353,46.9468235 68.6117647,41.0371765 70.2494118,35.6414118 L63.0127059,33.0070588 C62.2277647,35.6414118 59.7458824,39.408 54.3529412,39.408 L54.3529412,39.408 Z M89.8729412,10.1788235 C81.1425882,10.1788235 73.0531765,17.4296471 73.0531765,28.3905882 C73.0531765,40.128 81.3487059,46.9552941 90.72,46.9552941 C99.0155294,46.9552941 104.487529,42.0536471 106.328471,36.0056471 L99.3825882,33.7948235 C98.2475294,37.2112941 95.6894118,39.8428235 90.7284706,39.8428235 C85.6207059,39.8428235 81.5068235,36.0734118 81.2894118,30.816 L106.545882,30.816 C106.613647,30.6776471 106.760471,29.5341176 106.760471,28.1816471 C106.752,17.2235294 100.512,10.1788235 89.8729412,10.1788235 L89.8729412,10.1788235 Z M81.4983529,24.7595294 C81.7807059,21.0607059 84.7651765,17.0738824 89.9407059,17.0738824 C95.6216471,17.0738824 98.3181176,20.7049412 98.4564706,24.7595294 L81.4983529,24.7595294 Z M138.804706,19.2254118 C138.423816,18.8149017 138.051038,18.3969385 137.686588,17.9717647 C136.503529,16.512 135.952941,15.2301176 135.944471,13.9369412 C135.933176,12.576 136.416,11.4127059 137.330824,10.5825882 C138.188975,9.83303721 139.291674,9.42329108 140.431059,9.43058824 L140.479059,9.43058824 C143.895529,9.43058824 145.174588,12.0225882 145.646118,14.2136471 L145.705412,14.5101176 L151.473882,9.81458824 L151.541647,9.75529412 L151.513412,9.67623529 C149.683765,4.96941176 145.744941,2.38588235 140.431059,2.38588235 L140.304,2.38588235 C134.800941,2.42541176 129.024,6.05647059 128.611765,12.912 C128.600055,13.0726907 128.593464,13.2337134 128.592,13.3948235 C128.592,13.4456471 128.592,13.4936471 128.580706,13.5444706 C128.589077,13.6156831 128.59285,13.6873611 128.592,13.7590588 L128.600471,13.8381176 C128.671059,17.2432941 130.718118,20.4395294 131.997176,22.1054118 C127.547294,25.5868235 124.802824,28.9016471 124.802824,34.5854118 C124.813308,37.8815672 126.142183,41.0365026 128.493176,43.3468235 C131.141647,45.9501176 134.840471,47.3308235 139.191529,47.3308235 C144.564706,47.3308235 149.141647,45.2188235 152.103529,41.3816471 L156.886588,45.8908235 L156.926118,45.9190588 L167.133176,45.9303529 L138.807529,19.2254118 L138.804706,19.2254118 Z M136.918588,27.0578824 L146.583529,36.1835294 C145.360941,38.3350588 143.028706,40.8592941 138.787765,40.8592941 C137.841882,40.8592941 136.938353,40.6898824 136.099765,40.3651765 C133.827822,39.3400146 132.360286,37.086338 132.341647,34.5938824 C132.341647,31.6856471 133.600941,29.5256471 136.554353,27.3543529 L136.918588,27.0578824 L136.918588,27.0578824 Z" transform="translate(-1)"/>
</svg>
