<?xml version="1.0" encoding="UTF-8"?>
<svg width="192px" height="192px" viewBox="0 0 192 192" version="1.1" xmlns="http://www.w3.org/2000/svg" xmlns:xlink="http://www.w3.org/1999/xlink">
    <!-- Generator: Sketch Beta 63.1 (92452) - https://sketch.com -->
    <title>favicon</title>
    <desc>Created with Sketch Beta.</desc>
    <g id="favicon" stroke="none" stroke-width="1" fill="none" fill-rule="evenodd">
        <path d="M174.503339,56.4460881 C178.591114,67.758992 166.955052,80.2161702 148.152608,86.6719633 C152.279727,91.9833903 154.022989,98.3795204 152.380635,104.508868 C150.724907,110.688129 145.95363,115.381718 139.64807,117.904768 C140.98329,121.326818 141.295007,124.984934 140.340715,128.546399 C138.675032,134.762815 133.521782,139.305697 126.885056,141.291279 C127.818939,144.033022 127.988367,146.948097 127.224808,149.797739 C124.83231,158.726665 114.185835,163.631965 103.445242,160.754031 C100.630988,159.999954 98.0895075,158.786343 95.9141063,157.245161 L95.4856577,157.054414 C95.4193069,157.023825 95.3784227,157.003813 95.3629941,156.994347 C90.0300796,158.558657 80.6415193,156.565568 79.9569412,156.382136 C79.776112,156.333683 79.5963789,156.284269 79.4177641,156.233922 C79.6701922,156.510007 79.9247775,156.799222 80.1818059,157.101811 C71.0779308,161.904448 57.5859446,162.626747 49.5198954,160.940243 L49.1525426,160.85544 C44.175598,159.680768 36.0748484,156.733843 28.7505963,150.352515 L28.2561728,149.836117 C20.1907389,141.336852 12.7024496,129.643063 17.5152432,111.681472 C20.4223838,100.831876 29.5401336,91.7369144 32.228595,90.5108477 L32.5044879,89.5062938 C33.7814197,84.9094672 34.9076658,81.5849486 35.7684434,79.4078228 L35.6902666,79.3854104 C37.3178695,71.6952987 24.3511212,65.0519866 28.981863,44.4386657 C32.3520986,31.8607751 43.6587038,28.2808689 52.749114,30.7166369 C62.1769885,33.2428283 69.0896889,39.7880563 76.6761574,56.2750529 L76.90626,56.777708 C76.9195459,56.8077345 76.9326495,56.8375879 76.9455713,56.8672688 C81.6258024,58.1971353 85.8139212,59.9028848 89.234625,61.7648142 C97.9926443,56.3126891 114.607143,49.6147266 127.139478,45.7640243 C157.033139,36.8207931 169.595079,43.9192659 174.503339,56.4460881 Z" id="Path" fill="#F9F9F9"></path>
        <g id="hand" transform="translate(16.000000, 30.000000)" fill="#000000">
            <path d="M158.503339,26.4460881 C162.591114,37.758992 150.955052,50.2161702 132.152608,56.6719633 C136.279727,61.9833903 138.022989,68.3795204 136.380635,74.5088681 C134.724907,80.688129 129.95363,85.3817181 123.64807,87.9047684 C124.98329,91.3268185 125.295007,94.9849338 124.340715,98.546399 C122.675032,104.762815 117.521782,109.305697 110.885056,111.291279 C111.818939,114.033022 111.988367,116.948097 111.224808,119.797739 C108.83231,128.726665 98.1858352,133.631965 87.4452422,130.754031 C84.6309881,129.999954 82.0895075,128.786343 79.9141063,127.245161 L79.4856577,127.054414 C79.4193069,127.023825 79.3784227,127.003813 79.3629941,126.994347 C74.0300796,128.558657 64.6415193,126.565568 63.9569412,126.382136 C63.776112,126.333683 63.5963789,126.284269 63.4177641,126.233922 C63.6701922,126.510007 63.9247775,126.799222 64.1818059,127.101811 C55.0779308,131.904448 41.5859446,132.626747 33.5198954,130.940243 L33.1525426,130.85544 C28.175598,129.680768 20.0748484,126.733843 12.7505963,120.352515 L12.2561728,119.836117 C4.19073892,111.336852 -3.29755042,99.6430628 1.51524319,81.6814725 C4.42238384,70.8318759 13.5401336,61.7369144 16.228595,60.5108477 L16.5044879,59.5062938 C17.7814197,54.9094672 18.9076658,51.5849486 19.7684434,49.4078228 L19.6902666,49.3854104 C21.3178695,41.6952987 8.35112124,35.0519866 12.981863,14.4386657 C16.3520986,1.86077514 27.6587038,-1.71913113 36.749114,0.716636945 C46.1769885,3.24282829 53.0896889,9.78805633 60.6761574,26.2750529 L60.90626,26.777708 C60.9195459,26.8077345 60.9326495,26.8375879 60.9455713,26.8672688 C65.6258024,28.1971353 69.8139212,29.9028848 73.234625,31.7648142 C81.9926443,26.3126891 98.6071432,19.6147266 111.139478,15.7640243 C141.033139,6.82079306 153.595079,13.9192659 158.503339,26.4460881 Z M110.193231,23.0443948 C99.3027192,26.9716375 87.2434634,32.6136493 74.0154635,39.9704301 L73.9145154,39.8752805 L73.913594,39.8763613 C69.8515822,37.4484065 63.8968428,35.0113004 57.0770633,33.355982 L55.2025993,32.8537209 L51.3371212,24.7863136 L51.5928654,24.8319275 C46.6661191,16.388596 41.1972479,10.1196883 34.2714536,8.08892761 C27.5015198,6.48077771 21.935005,9.42176077 20.011103,16.3221449 C18.244674,23.1942633 21.598486,35.2128332 25.9505001,41.0176127 L25.8770836,40.9162753 C26.0420736,40.9105036 26.2069276,40.9286973 26.3714386,40.9724884 L27.9216484,41.3817132 C28.1435053,41.4416597 28.3476303,41.499099 28.5348088,41.5564636 C31.0881113,42.2274264 30.9313419,42.8527415 30.7285802,43.8046787 L30.4686406,44.7678621 C29.2098015,49.4899092 28.8764926,51.5818274 28.1918549,52.2070778 L27.9666046,53.1556219 C27.7120463,54.2420387 27.4436013,55.4379166 27.165075,56.7552371 C23.5530406,69.5675297 27.3624386,86.3627033 38.4923483,96.9576931 C39.9549339,98.414049 39.739936,101.812333 36.4250288,100.924107 C30.2710166,99.2751439 20.0978842,90.2825904 16.9306153,70.9543517 L16.8662594,70.8570952 C16.6469127,70.5327899 16.3792031,70.2264165 16.0603694,70.510994 C13.8008192,71.6542688 10.0334157,77.9109766 8.04222203,85.4394157 C6.88777719,90.9141775 6.97242837,95.9153191 8.36724238,101.096599 C10.0205129,106.429816 13.1490503,111.940211 19.9726918,117.76732 C32.5145454,127.327889 49.4682207,125.302498 53.7803338,122.807961 C53.9915584,122.663811 54.2061699,122.538203 54.4241681,122.431136 C49.6938347,119.575651 47.1122936,116.143121 47.8155271,113.518618 C50.9704287,109.72203 52.2190468,115.793207 64.9031884,119.101765 C69.049203,120.301017 71.5574217,121.705479 73.5901504,120.061423 C71.8950578,116.719463 71.3599585,112.994872 72.3296805,109.375821 C73.3576478,105.539394 75.9093815,102.44577 79.3376416,100.393159 C76.3581442,95.9313562 75.2018641,90.7397617 76.5418836,85.7387407 C77.7189588,81.3458363 80.6376231,77.7886468 84.5906607,75.3790405 C81.6837843,70.5994594 80.6195567,65.1742246 82.0211798,59.9432958 C85.2111781,48.0380603 99.9659612,41.6475744 114.97691,45.6697461 C119.220611,46.8068424 123.030475,48.6544201 126.240551,50.9888797 C143.74255,45.4297935 153.233627,37.6935719 150.938193,28.4371022 C148.657348,20.2715197 137.77768,13.4343753 110.193231,23.0443948 Z M86.0984142,107.152138 C82.9495139,107.864334 80.5378118,109.711341 79.8352277,112.333421 C78.6563153,116.733182 82.7359746,121.649113 88.9474019,123.31346 C95.1588291,124.977807 101.149883,122.760315 102.328796,118.360554 C102.872168,116.332661 102.29842,114.195114 100.913712,112.316831 C99.0636781,112.177657 97.180386,111.861516 95.2931231,111.355826 C91.9933023,110.471641 88.9937358,109.091681 86.3949611,107.353293 L86.0984142,107.152138 Z M90.8079915,82.4216536 L90.7519718,82.4460227 C88.0336091,83.6759169 86.0638496,85.6655115 85.3773065,88.2277252 C83.8169813,94.0509383 89.4757032,100.626762 98.0164157,102.915239 C106.557128,105.203716 114.745637,102.338247 116.305962,96.5150336 C116.895243,94.3158069 116.454863,92.0092343 115.218444,89.8668029 C111.450414,90.1902615 107.446854,89.8600959 103.424905,88.7824178 C98.568093,87.481039 94.279532,85.2490545 90.8079915,82.4216536 Z M112.820271,53.5976577 C102.467893,50.8237461 92.473433,54.5545326 90.497021,61.9306025 C88.520609,69.3066723 95.3106717,77.534858 105.66305,80.3087695 C116.015429,83.082681 126.009889,79.3518945 127.986301,71.9758247 C129.962713,64.5997548 123.17265,56.3715692 112.820271,53.5976577 Z"></path>
        </g>
    </g>
</svg>