<svg xmlns="http://www.w3.org/2000/svg" width="88" height="48" viewBox="0 0 88 48">
  <path fill-rule="evenodd" d="M73.7836407,11.8684571 C80.0336845,11.8684571 86.1496049,15.6955553 86.1496049,22.2908922 C86.1496049,23.053271 85.5256865,23.6809846 84.7513544,23.6809846 L81.2798922,23.6809846 C80.5229364,23.6809846 79.895217,23.053271 79.895217,22.2908922 C79.895217,19.8631175 78.0886231,17.7785219 73.7836407,17.7785219 C69.4748572,17.7785219 67.6639192,19.9277351 67.6639192,21.9449981 C67.6639192,24.4520515 70.3697375,25.2106293 73.7836407,25.8312839 C79.6182819,26.8787402 87.471291,28.1287374 87.471291,36.8814326 C87.471291,44.3162551 81.0013281,48 73.7836407,48 C66.825512,48 60.0215981,44.5247689 60.0215981,35.9800446 C60.0215981,35.2138647 60.6482315,34.5926672 61.4160475,34.5926672 L64.8804506,34.5926672 C65.6444655,34.5926672 66.276529,35.2138647 66.276529,35.9800446 C66.276529,41.0527959 70.5874845,42.0242316 73.7836407,42.0242316 C77.533667,42.0242316 81.2093009,41.0527959 81.2093009,36.8814326 C81.2093009,33.8243153 77.807344,32.9267283 73.7836407,32.0866998 C68.0787788,30.9116373 61.2048166,29.5177438 61.2048166,21.9449981 C61.2048166,15.6955553 67.4570325,11.8684571 73.7836407,11.8684571 Z M11.8289274,0.0461554125 C12.5880552,0.0461554125 13.2163177,0.676584047 13.2163177,1.44602192 L13.2163177,1.44602192 L13.2163177,11.8445649 C13.2163177,12.2268403 13.4487259,12.4777085 13.7995103,12.5254929 L13.7995103,12.5254929 L27.1428923,12.5254929 C27.9041922,12.5254929 28.5308256,13.1456045 28.5308256,13.9117843 L28.5308256,13.9117843 L28.5308256,17.0432933 C28.5308256,17.8056721 27.9041922,18.4366438 27.1428923,18.4366438 L27.1428923,18.4366438 L14.055268,18.4366438 C13.6300912,18.4366438 13.3498981,18.7141193 13.3498981,19.127346 L13.3498981,19.127346 L13.3498981,40.7003858 C13.3498981,41.1184995 13.6300912,41.397604 14.055268,41.397604 L14.055268,41.397604 L21.4733261,41.397604 C22.238427,41.397604 22.8656034,42.0285756 22.8656034,42.7860674 L22.8656034,42.7860674 L22.8656034,45.9240924 C22.8656034,46.6875573 22.238427,47.3082118 21.4733261,47.3082118 L21.4733261,47.3082118 L8.33900286,47.3082118 C7.57824601,47.3082118 6.95378464,46.6875573 6.95378464,45.9240924 L6.95378464,45.9240924 L6.95378464,19.127346 C6.95378464,18.7141193 6.67522056,18.4366438 6.26036101,18.4366438 L6.26036101,18.4366438 L1.39336337,18.4366438 C0.628262441,18.4366438 7.10542736e-14,17.8056721 7.10542736e-14,17.0432933 L7.10542736e-14,17.0432933 L7.10542736e-14,13.9117843 C7.10542736e-14,13.1456045 0.628262441,12.5254929 1.39336337,12.5254929 L1.39336337,12.5254929 L6.36624794,12.5254929 C6.71811835,12.4777085 6.95269862,12.2268403 6.95269862,11.8445649 L6.95269862,11.8445649 L6.95269862,1.44602192 C6.95269862,0.676584047 7.5722729,0.0461554125 8.34226092,0.0461554125 L8.34226092,0.0461554125 Z M48.4207348,12.5597023 C49.1814917,12.5597023 49.80541,13.1803568 49.80541,13.9427356 L49.80541,40.7112459 C49.80541,41.1233865 50.0856031,41.402491 50.4988336,41.402491 L55.3614872,41.402491 C56.1233301,41.402491 56.7537646,42.0329197 56.7537646,42.7942125 L56.7537646,45.9219204 C56.7537646,46.6881003 56.1233301,47.3082118 55.3614872,47.3082118 L29.6369367,47.3082118 C28.8761799,47.3082118 28.2511755,46.6881003 28.2511755,45.9219204 L28.2511755,42.7942125 C28.2511755,42.0329197 28.8761799,41.402491 29.6369367,41.402491 L42.7115288,41.402491 C43.1356196,41.402491 43.4152696,41.1233865 43.4152696,40.7112459 L43.4152696,19.1610123 C43.4152696,18.7434415 43.1356196,18.46488 42.7115288,18.46488 L35.2999869,18.46488 C34.536515,18.46488 33.9098815,17.8339084 33.9098815,17.0769596 L33.9098815,13.9427356 C33.9098815,13.1803568 34.536515,12.5597023 35.2999869,12.5597023 L48.4207348,12.5597023 Z M48.8974975,0 C49.527932,0 50.0150118,0.554407955 50.0150118,1.11641798 L50.0150118,5.90952182 C50.0150118,6.53071937 49.527932,7.02105275 48.8974975,7.02105275 L44.1760265,7.02105275 C43.5483071,7.02105275 43.0574261,6.53071937 43.0574261,5.90952182 L43.0574261,1.11641798 C43.0574261,0.554407955 43.5483071,0 44.1760265,0 L48.8974975,0 Z"/>
</svg>
