<svg xmlns="http://www.w3.org/2000/svg" width="48" height="48" viewBox="0 0 48 48">
  <path d="M41.4575342,0 C45.0739726,0 48,2.9260274 48,6.53776908 L48,41.4575342 C48,45.0739726 45.0739726,48 41.4622309,48 L6.53776908,48 C2.9260274,48 0,45.0739726 0,41.4622309 L0,6.53776908 C0,2.9260274 2.9260274,0 6.53776908,0 L41.4575342,0 Z M24.1409002,11.3189824 C17.1475538,11.3189824 11.4598826,17.0066536 11.4598826,24 C11.4598826,30.9933464 17.1475538,36.6810176 24.1409002,36.6810176 C28.6497065,36.6810176 32.8626223,34.2528376 35.1217221,30.3405088 C35.2579256,30.1103718 35.3847358,29.8755382 35.5021526,29.6360078 C35.6148728,29.4058708 35.727593,29.1710372 35.8262231,28.9315068 C36.3240705,27.7573386 35.7745597,26.4 34.5956947,25.9021526 C33.4215264,25.4043053 32.0641879,25.953816 31.5663405,27.132681 C31.5005871,27.2829746 31.430137,27.4332681 31.3596869,27.578865 C31.2845401,27.7291585 31.2046967,27.8794521 31.1201566,28.0250489 C29.6829746,30.509589 27.0058708,32.0547945 24.1409002,32.0547945 C19.6978474,32.0547945 16.0861057,28.4430528 16.0861057,24 C16.0861057,19.5569472 19.6978474,15.9452055 24.1409002,15.9452055 C27.0105675,15.9452055 29.6829746,17.490411 31.1201566,19.9749511 C31.2046967,20.1205479 31.2845401,20.2708415 31.3596869,20.421135 C31.4348337,20.5667319 31.5005871,20.7170254 31.5663405,20.867319 C32.0641879,22.046184 33.4215264,22.5956947 34.5956947,22.0978474 C35.7745597,21.6 36.3240705,20.2473581 35.8262231,19.0684932 C35.727593,18.8336595 35.6148728,18.5941292 35.5021526,18.3639922 C35.3800391,18.1244618 35.253229,17.8896282 35.1217221,17.6594912 C32.8626223,13.7471624 28.6544031,11.3189824 24.1409002,11.3189824 Z"/>
</svg>
