<svg xmlns="http://www.w3.org/2000/svg" width="95" height="48" viewBox="0 0 95 48">
  <path fill="#1A1919" fill-rule="evenodd" d="M15.0194358,15.5564881 C29.3185674,2.34591442 54.6402029,-9.19409192 94.0685895,10.8492932 L94.0685895,10.8492932 L94.5919493,11.1160697 L94.3006022,11.6261173 C94.2473534,11.7194548 88.8722662,21.0138067 79.0661173,30.0727987 C62.7317401,45.1639683 35.8259525,58.4582948 0.407885895,36.090599 L0.407885895,36.090599 L-4.16979358e-14,35.8334073 L0.194510301,35.3917464 C0.239695721,35.2880634 4.87180983,24.9315499 15.0194358,15.5564881 Z M93.0256735,11.5762916 C54.4758922,-7.80209192 29.752393,3.46893185 15.778916,16.3785737 C6.97627892,24.5109604 2.4082916,33.3629667 1.42334073,35.4068843 C36.0340032,57.0260539 62.3243867,44.0165325 78.3069414,29.2507132 C86.6776545,21.5169319 91.7720444,13.6204374 93.0256735,11.5762916 Z M33.9776101,29.3108082 C34.5853312,29.3706751 35.1846086,29.5091981 35.7776482,29.7243994 C36.3696989,29.9405895 36.8884184,30.2129952 37.3359366,30.5411601 C37.4604628,30.6437781 37.6084184,30.7704342 37.7810206,30.9221933 C37.9521775,31.0741046 38.1165642,31.2360571 38.2707575,31.4086593 C38.426168,31.5815658 38.5556387,31.7478542 38.6592456,31.9078288 C38.7633851,32.0686403 38.8095594,32.206935 38.7976165,32.3253756 C38.7820222,32.4892298 38.7115055,32.6237971 38.5894897,32.731588 C38.4661046,32.8390745 38.3226371,32.8844881 38.1604564,32.8683613 C38.0264216,32.8555055 37.8999937,32.7750238 37.7791949,32.6285135 C37.3725261,32.049851 36.8263455,31.5649065 36.1393597,31.1745927 C35.451233,30.7851918 34.6922853,30.548691 33.8625166,30.4661553 C33.0031569,30.3805008 32.2046529,30.4704152 31.4673851,30.7338447 C30.729813,30.9976545 30.0808621,31.3973249 29.518935,31.9327797 C28.9560951,32.4680824 28.4992203,33.1193154 28.1468653,33.8851854 C27.7932171,34.6510555 27.5720824,35.4930713 27.4801902,36.4119937 C27.3895151,37.3323613 27.4370586,38.2083043 27.6237338,39.0419525 C27.8104849,39.8767417 28.1221426,40.6175848 28.5592393,41.267981 C28.9958796,41.9173883 29.5454834,42.4473661 30.2088114,42.8570777 C30.8717591,43.2670174 31.6332171,43.5151569 32.4931854,43.6002789 C33.2935151,43.6796957 34.0422694,43.6004311 34.7390681,43.3628653 C35.4372361,43.1253756 36.0524881,42.7594802 36.5880951,42.2657876 C37.1226371,41.7733883 37.5714485,41.1777623 37.9325515,40.4795943 C38.2423292,39.8820774 38.4717959,39.2323612 38.6215264,38.5305893 L38.6897496,38.1753661 L32.0414073,37.5157655 C31.6707195,37.4796323 31.5038986,37.2682345 31.5424659,36.8818003 C31.5751911,36.548729 31.7438423,36.3810363 32.0474212,36.3771141 L32.1536101,36.38187 L39.3790174,37.0982948 C39.7493249,37.1346561 39.9160697,37.34613 39.8785674,37.7314992 C39.7738193,38.7836197 39.5125198,39.7576926 39.0943645,40.6515119 C38.6767417,41.5460158 38.1355816,42.3156894 37.4733185,42.9602282 C36.8108273,43.6054517 36.0438922,44.0911569 35.1736545,44.4154422 C34.3029604,44.741477 33.370954,44.8546688 32.3780919,44.7557781 C31.3697116,44.6559746 30.4716323,44.3620412 29.6820285,43.8716957 C28.8919683,43.3815024 28.2359429,42.754916 27.7122029,41.992317 C27.1889192,41.2292615 26.8081902,40.3610777 26.5684945,39.3865483 C26.3278859,38.4118669 26.261401,37.3837845 26.3682789,36.3015404 C26.4758415,35.2200571 26.7458891,34.2289445 27.1805515,33.3288875 C27.6137686,32.4287544 28.1642853,31.6645578 28.8336228,31.0349287 C29.5011347,30.4040824 30.2745357,29.9351886 31.1514675,29.6249002 C32.0264216,29.3150681 32.9692298,29.2110808 33.9776101,29.3108082 Z M48.3270238,28.7833407 C48.8343328,28.8956197 49.2801775,29.0973566 49.6628082,29.386878 C50.045439,29.674954 50.3689635,30.0441965 50.6319366,30.4933883 C50.8931601,30.9431886 51.079683,31.4464659 51.188691,32.0013946 C51.2976228,32.5562472 51.3168685,33.100374 51.2459715,33.6289065 C51.1744659,34.159645 51.0145674,34.6388082 50.7646783,35.0669287 C50.5149414,35.4952013 50.1722472,35.862542 49.7392583,36.1663645 C49.3681902,36.4286747 48.9245236,36.6235839 48.4094082,36.751236 L48.1459017,36.809458 L47.3343899,36.9681395 L53.0471506,41.950935 C53.1603423,42.0651918 53.2291854,42.1815024 53.2512456,42.2977369 C53.2837274,42.4589287 53.2542884,42.601103 53.1652108,42.7252488 C53.0742314,42.8486339 52.957084,42.9251601 52.8112583,42.9536101 C52.6701338,42.9806301 52.5337316,42.9539509 52.4013118,42.8735726 L52.3027322,42.8032203 L45.9542567,37.2397845 L42.7308019,37.8703265 L43.9460919,44.0757908 C44.0233027,44.4702124 43.8792266,44.7034422 43.5140158,44.7751759 C43.1845731,44.8389832 42.9730642,44.7152915 42.8773266,44.4018827 L42.8496989,44.2903835 L40.1733376,30.6303899 C40.1093933,30.301084 40.2218571,30.0916838 40.5113389,30.0008584 L40.6143899,29.9749731 L46.6440571,28.7930016 C47.2578637,28.6726593 47.8184976,28.6699208 48.3270238,28.7833407 Z M6.89188579,30.730635 L6.99035182,30.7977433 L17.636691,38.7585927 L21.3301807,33.8199937 C21.5430998,33.5333629 21.8056926,33.5059017 22.1157528,33.7383708 C22.3952862,33.9471138 22.4620579,34.1781619 22.316678,34.4308497 L22.2603613,34.5158796 L18.2195372,39.9195689 C18.0258561,40.1770574 17.7989021,40.2285619 17.5382869,40.073528 L17.450168,40.0141997 L6.32086212,31.6920951 C5.98630745,31.4417496 5.93518859,31.1624216 6.16796197,30.8514485 C6.36075309,30.5946447 6.60191315,30.5535602 6.89188579,30.730635 Z M60.1616482,24.3367607 C61.0193344,24.5680127 61.8428653,24.9689762 62.6326973,25.5390428 C63.4217686,26.1107829 64.1254136,26.8313914 64.7415784,27.6984342 C65.3591125,28.5666941 65.8075436,29.4672837 66.0884691,30.3998225 C66.3685578,31.3331981 66.4779461,32.2432964 66.414504,33.1307258 C66.3518225,34.0175468 66.1008685,34.8569002 65.6608811,35.6492425 C65.221122,36.442878 64.5923296,37.1224849 63.7738193,37.6913344 C62.9419968,38.2674865 62.078149,38.6227322 61.1795372,38.7568431 C60.2801648,38.8930079 59.3982124,38.8383138 58.5323867,38.5954992 C57.6670935,38.3533693 56.837401,37.9430491 56.0427005,37.3650713 C55.2492171,36.7883867 54.5451157,36.0657242 53.9268209,35.1979968 C53.3107322,34.3297369 52.8633661,33.4318859 52.5868526,32.5052805 C52.3106434,31.5776101 52.2086339,30.6769445 52.2794548,29.8028273 C52.3509604,28.9268843 52.6073154,28.1015277 53.0492044,27.3237908 C53.4917021,26.5468146 54.1274929,25.8706307 54.9581743,25.2944025 C55.7778257,24.7269984 56.6353597,24.3674168 57.5306244,24.2161902 C58.4278669,24.0656482 59.3044184,24.1060412 60.1616482,24.3367607 Z M57.8012044,25.3076387 C57.0551125,25.4260032 56.3274295,25.73013 55.6186878,26.2217686 C54.90987,26.7134073 54.3728938,27.2853756 54.0068463,27.9386624 C53.6409509,28.5917971 53.4325959,29.2866941 53.3817052,30.0233534 C53.3308146,30.7600127 53.4297052,31.5164501 53.68142,32.2926656 C53.9321458,33.0683487 54.3192647,33.8243296 54.8439937,34.5620539 C55.3686466,35.2999303 55.9610016,35.9217242 56.6244057,36.4302504 C57.2856038,36.939233 57.9805769,37.2995753 58.7087163,37.5151569 C59.4356387,37.7295214 60.1742758,37.7810206 60.9252361,37.6694263 C61.675588,37.5569192 62.404412,37.2555309 63.1139144,36.7633597 C63.8227322,36.2717211 64.3586434,35.6970143 64.7195182,35.0384025 C65.0817623,34.3784976 65.2839556,33.6740919 65.3259461,32.9265547 C65.3674041,32.1782567 65.260374,31.4103328 65.000748,30.6226307 C64.7418067,29.8342441 64.3498193,29.0714929 63.8251664,28.3336926 C63.3018067,27.5972615 62.7126466,26.9798796 62.0578384,26.4837528 C61.4046276,25.987626 60.7172615,25.6380856 59.9984025,25.4352837 C59.2795436,25.2325578 58.5471442,25.1904913 57.8012044,25.3076387 Z M47.083932,29.8979112 L46.8672456,29.9333629 L41.3858891,31.0073154 L42.5069287,36.7307258 L47.9227132,35.6692488 C48.77013,35.5037971 49.3863708,35.1016165 49.7703708,34.4646086 C50.1539905,33.8279049 50.2634548,33.0929192 50.1002853,32.2601078 C49.9378764,31.426916 49.5585927,30.7916577 48.965477,30.3538003 C48.4244829,29.9563014 47.7975489,29.8043002 47.083932,29.8979112 Z M18.5512773,17.4238479 C18.8115727,17.6742846 18.8546084,17.9162799 18.6805508,18.1507211 L18.6144913,18.2285895 L14.3401331,22.6747892 L18.5453439,26.7155372 L21.8588653,23.2682853 C22.1165135,22.9999873 22.3848875,23.0000634 22.6640634,23.2672964 C22.9061477,23.500412 22.9344228,23.7372863 22.7496097,23.9771983 L22.6801141,24.0572805 L19.3662124,27.5049128 L23.5387892,31.5150048 L27.8123106,27.0694136 C28.0593851,26.8108526 28.3239556,26.8170143 28.6024469,27.0850079 C28.8539106,27.3262707 28.89175,27.5632819 28.7162423,27.7963189 L28.6498384,27.873851 L23.9889699,32.7227639 C23.7576342,32.9649166 23.5206915,32.9930138 23.2800271,32.807887 L23.1996704,32.7382821 L13.1310048,23.0616799 C12.8900158,22.8299334 12.8618503,22.5931345 13.0462307,22.3526693 L13.1155626,22.2723803 L17.7761268,17.4224786 C18.0237338,17.1658954 18.2822187,17.1649826 18.5512773,17.4238479 Z M76.5474485,6.87890967 C76.7049128,6.87464976 76.8266244,6.91428209 76.9125832,6.99674168 C76.9632964,7.04471632 77.0065716,7.099757 77.0430851,7.16204402 L77.0928685,7.26093185 L83.5238035,20.4521838 C83.5915055,20.6199176 83.6143265,20.7747195 83.5899842,20.9179588 C83.5671632,21.0602853 83.5101109,21.1799429 83.4180666,21.2766276 C83.313851,21.3838098 83.1913788,21.4531854 83.0498891,21.4825483 C82.9443423,21.5049699 82.833233,21.499065 82.716561,21.4653792 L82.5980349,21.4224532 L70.3732488,16.1375848 L76.2081775,28.1093629 C76.2743582,28.2770967 76.2971791,28.4318225 76.2743582,28.5749097 C76.2507765,28.7183011 76.1929635,28.8369699 76.1009192,28.9339588 C75.9977686,29.0416735 75.8746117,29.1110491 75.7340349,29.1398796 C75.6275182,29.162187 75.5163376,29.1563391 75.4000115,29.1224002 L75.2819525,29.0790998 L61.8121331,23.2536799 C61.7050269,23.2144279 61.6151886,23.1582884 61.5391189,23.086859 C61.4536165,23.0037147 61.408355,22.8836006 61.4039973,22.7255277 C61.4011284,22.5675309 61.4656355,22.41813 61.6001268,22.2788463 C61.7260602,22.1469223 61.9030127,22.118143 62.1302197,22.1939352 L62.2306688,22.2328241 L74.6460095,27.5455341 L68.7756323,15.3837338 C68.7091474,15.2376799 68.6805452,15.1122409 68.6886846,15.0060475 C68.6961395,14.9004628 68.7565388,14.7889445 68.8697306,14.670504 C68.9719683,14.5633217 69.077477,14.5077147 69.1820729,14.5058891 C69.2615468,14.503607 69.3493645,14.5164723 69.4471628,14.5439394 L69.5483487,14.5762536 L81.9620919,19.8878225 L76.0925515,7.72663074 C75.9592013,7.45620285 75.9663518,7.24465293 76.1085261,7.09441521 C76.2424089,6.95429477 76.3884628,6.88248494 76.5474485,6.87890967 Z M28.7055214,9.92573059 C28.914059,10.2216951 28.9152571,10.4641765 28.7092266,10.6531193 L28.6328748,10.7141173 L25.0162155,13.2620729 L32.6740032,24.1307639 C32.9136989,24.4710998 32.8765769,24.7535468 32.5586054,24.976355 C32.2961192,25.1619575 32.0543977,25.125371 31.8336074,24.8673164 L31.7607861,24.7730967 L24.1033788,13.9067639 L20.4690713,16.4670428 C20.1766593,16.6738764 19.9141426,16.6114992 19.6827385,16.2836387 C19.4898789,16.0095823 19.5017709,15.7751452 19.7190799,15.5811594 L19.7991252,15.5179968 L27.963309,9.76476704 C28.2434739,9.56797464 28.4907005,9.62046276 28.7055214,9.92573059 Z M38.1172488,6.54808241 C38.2291854,6.89238162 38.1530685,7.12632571 37.8880663,7.24997013 L37.7927353,7.28709984 L37.0716704,7.52040571 L41.0012805,19.6580919 L41.7242472,19.4242536 C42.0639746,19.3140285 42.296748,19.4508019 42.4204374,19.8326719 C42.5238162,20.1517084 42.4419758,20.3723433 42.1773563,20.4931349 L42.0823835,20.5296989 L39.6155943,21.3280507 C39.2611854,21.4428399 39.0284881,21.3225737 38.9141553,20.9687734 C38.8017395,20.6250219 38.883662,20.3887295 39.1591465,20.2616154 L39.2581426,20.22329 L39.9384342,20.0022314 L36.007683,7.86439303 L35.3286086,8.08545166 C34.9741236,8.20031696 34.7340475,8.06658637 34.6104342,7.68342314 C34.5075347,7.36507132 34.5933048,7.14308767 34.8704065,7.01758311 L34.9698637,6.97932171 L37.4358162,6.18173059 C37.7750111,6.07082092 38.0029921,6.19428209 38.1172488,6.54808241 Z M50.5572361,3.85802853 C50.6278212,4.21307639 50.531056,4.43564881 50.2663858,4.52552398 L50.1719429,4.55056735 L45.8336862,5.42141363 L48.4482789,18.4549731 C48.5313471,18.8641521 48.3816418,19.1074992 48.0025103,19.1833407 C47.6862124,19.2465319 47.4804544,19.1154462 47.3821864,18.7908602 L47.3534073,18.6754992 L44.7382821,5.64125515 L40.3794105,6.51453566 C40.028729,6.58558479 39.8145927,6.42393661 39.7348716,6.02928685 C39.6685312,5.70107639 39.7744089,5.49153927 40.051451,5.40167369 L40.1501363,5.37615214 L49.9428209,3.41195563 C50.2795055,3.34379715 50.4835246,3.49335024 50.5572361,3.85802853 Z"/>
</svg>
