<?xml version="1.0" encoding="UTF-8"?>
<svg width="240px" height="176px" viewBox="0 0 240 176" version="1.1" xmlns="http://www.w3.org/2000/svg" xmlns:xlink="http://www.w3.org/1999/xlink">
    <!-- Generator: Sketch 42 (36781) - http://www.bohemiancoding.com/sketch -->
    <title>01A</title>
    <desc>Created with Sketch.</desc>
    <defs></defs>
    <g id="Landingpage" stroke="none" stroke-width="1" fill="none" fill-rule="evenodd">
        <g id="01A">
            <g id="Page-1-Copy-2">
                <path d="M195.839876,139.209575 C196.853347,138.626363 197.615627,138.182425 198.381637,137.747192 C209.001326,131.699938 218.506819,124.424083 225.930653,115.034238 C240.953658,96.0356891 244.452933,75.5610777 233.74371,53.7670881 C226.594694,39.2166218 214.620808,28.5484352 200.265575,20.2155855 C173.609409,4.73993782 144.262259,-0.868352332 113.241326,0.107813472 C93.0353161,0.742010363 73.5679585,4.63050777 55.1053679,12.4311295 C38.5515855,19.4259482 23.9153161,28.8904041 13.138943,42.8265699 C0.30080829,59.4300933 -3.65235233,77.5979689 3.61106736,97.2618031 C8.96443523,111.755067 19.2881658,122.882114 32.2854715,131.867813 C56.258114,148.442736 83.6927254,155.427606 113.056041,156.71714 C127.140187,157.335171 141.102466,156.178694 154.921741,153.521285 C155.783503,153.355896 156.92257,153.432995 157.652518,153.838383 C174.612933,163.24315 192.737285,169.74056 212.230756,172.60315 C219.463088,173.663876 228.370446,174.366466 235.668684,175.031751 C235.755731,174.758176 235.841534,174.484601 235.927337,174.211026 C218.658528,167.042114 205.44485,154.108228 195.839876,139.209575" id="Fill-1" fill="#FEFEFE"></path>
                <path d="M239.003813,175.031751 C238.922984,175.337658 235.791793,174.989472 235.668684,175.031751 C228.370446,174.366466 219.463088,173.663876 212.230756,172.60315 C192.737285,169.74056 174.612933,163.24315 157.652518,153.838383 C156.92257,153.432995 155.783503,153.355896 154.921741,153.521285 C141.102466,156.178694 127.140187,157.335171 113.056041,156.71714 C83.6927254,155.427606 56.258114,148.442736 32.2854715,131.867813 C19.2881658,122.882114 8.96443523,111.755067 3.61106736,97.2618031 C-3.65235233,77.5979689 0.30080829,59.4300933 13.138943,42.8265699 C23.9153161,28.8904041 38.5515855,19.4259482 55.1053679,12.4311295 C73.5679585,4.63050777 93.0353161,0.742010363 113.241326,0.107813472 C144.262259,-0.868352332 173.609409,4.73993782 200.265575,20.2155855 C214.620808,28.5484352 226.594694,39.2166218 233.74371,53.7670881 C244.452933,75.5610777 240.953658,96.0356891 225.930653,115.034238 C218.506819,124.424083 209.001326,131.699938 198.381637,137.747192 C197.615627,138.182425 196.853347,138.626363 195.839876,139.209575 C205.44485,154.108228 221.733762,167.862839 239.003813,175.031751 Z" id="Fill-3" fill="#000000"></path>
            </g>
            <path d="M60.6211764,76.856 C62.199851,76.9626672 63.4318387,76.7653358 64.3171764,76.264 C65.2025142,75.7626642 65.7731752,75.074671 66.0291764,74.2 C66.1571771,73.8159981 66.1838435,73.4693349 66.1091764,73.16 C66.0345094,72.8506651 65.8478446,72.6053342 65.5491764,72.424 C65.2505083,72.2426658 64.8131793,72.152 64.2371764,72.152 C63.6611736,72.152 62.946514,72.2586656 62.0931764,72.472 C61.8371752,73.2186704 61.586511,73.9493298 61.3411764,74.664 C61.0958419,75.3786702 60.8558443,76.1093296 60.6211764,76.856 Z M57.4211764,85.88 C58.3385144,86.0080006 59.1598395,86.034667 59.8851764,85.96 C60.6105134,85.885333 61.2345072,85.7306678 61.7571764,85.496 C62.2798457,85.2613322 62.7065081,84.9573352 63.0371764,84.584 C63.3678448,84.2106648 63.5971758,83.8000022 63.7251764,83.352 C63.9598443,82.5413293 63.6718472,81.9226688 62.8611764,81.496 C62.0505057,81.0693312 60.7065192,81.0053318 58.8291764,81.304 C58.5945086,82.1146707 58.3598443,82.8773298 58.1251764,83.592 C57.8905086,84.3066702 57.6558443,85.0693293 57.4211764,85.88 Z M50.7971764,90.104 C51.309179,88.2479907 51.8158406,86.4186757 52.3171764,84.616 C52.8185123,82.8133243 53.3358404,81.0106757 53.8691764,79.208 C54.4025124,77.4053243 54.9571736,75.5866758 55.5331764,73.752 C56.1091793,71.9173242 56.7278398,70.029343 57.3891764,68.088 C58.3918481,67.7893318 59.5171702,67.544001 60.7651764,67.352 C62.0131827,67.159999 63.181171,67.0426669 64.2691764,67 C64.8878462,67 65.5331731,67.0213331 66.2051764,67.064 C66.8771798,67.1066669 67.5225067,67.2133325 68.1411764,67.384 C68.7811796,67.5546675 69.3731737,67.7946651 69.9171764,68.104 C70.4611792,68.4133349 70.9251745,68.797331 71.3091764,69.256 C71.6931784,69.714669 71.9705089,70.2533302 72.1411764,70.872 C72.311844,71.4906698 72.3438436,72.1946627 72.2371764,72.984 C72.1518427,73.6240032 71.9331782,74.2533302 71.5811764,74.872 C71.2291747,75.4906698 70.7811792,76.066664 70.2371764,76.6 C69.6931737,77.133336 69.0745132,77.6133312 68.3811764,78.04 C67.6878396,78.4666688 66.9571803,78.7866656 66.1891764,79 C66.8291796,79.0853338 67.4371736,79.2506654 68.0131764,79.496 C68.5891793,79.7413346 69.0905076,80.0719979 69.5171764,80.488 C69.9438452,80.9040021 70.2585088,81.4053304 70.4611764,81.992 C70.6638441,82.5786696 70.7011771,83.2453296 70.5731764,83.992 C70.3385086,85.3360067 69.7785142,86.503995 68.8931764,87.496 C68.0078387,88.488005 66.8611835,89.2613306 65.4531764,89.816 C64.8771736,90.0506678 64.2585131,90.2426659 63.5971764,90.392 C62.9358398,90.5413341 62.2798464,90.6586662 61.6291764,90.744 C60.9785065,90.8293338 60.3545128,90.8933331 59.7571764,90.936 C59.1598401,90.9786669 58.6265121,91 58.1571764,91 C56.4291678,91.0426669 54.9731824,90.9573344 53.7891764,90.744 C52.6051705,90.5306656 51.6078472,90.3173344 50.7971764,90.104 Z M83.7115817,68.024 C83.3489132,69.1333389 82.9489172,70.3653266 82.5115817,71.72 C82.0742462,73.0746734 81.6475838,74.455993 81.2315817,75.864 C80.8155796,77.272007 80.4209169,78.6586598 80.0475817,80.024 C79.6742465,81.3893402 79.359583,82.6266611 79.1035817,83.736 C78.9969145,84.1840022 78.9915812,84.5306654 79.0875817,84.776 C79.1835822,85.0213346 79.3275807,85.2026661 79.5195817,85.32 C79.7115826,85.4373339 79.9355804,85.5066666 80.1915817,85.528 C80.447583,85.5493334 80.6929138,85.56 80.9275817,85.56 C81.3755839,85.5386666 81.7649134,85.4960003 82.0955817,85.432 C82.42625,85.3679997 82.7195804,85.2506675 82.9755817,85.08 C83.231583,84.9093325 83.4502474,84.6800014 83.6315817,84.392 C83.8129159,84.1039986 83.9782476,83.7360022 84.1275817,83.288 C84.4902502,82.2426614 84.868913,81.0426734 85.2635817,79.688 C85.6582503,78.3333266 86.0369132,76.9466738 86.3995817,75.528 C86.7622502,74.1093262 87.1035801,72.7173402 87.4235817,71.352 C87.7435833,69.9866598 88.0209138,68.7493389 88.2555817,67.64 C89.6422553,67.5333328 90.8689097,67.4853333 91.9355817,67.496 C93.0022537,67.5066667 94.1009094,67.5653328 95.2315817,67.672 C94.9115801,68.8453392 94.5809167,70.1039933 94.2395817,71.448 C93.8982466,72.7920067 93.5409169,74.1626597 93.1675817,75.56 C92.7942465,76.9573403 92.4102503,78.3439931 92.0155817,79.72 C91.620913,81.0960069 91.220917,82.3919939 90.8155817,83.608 C90.2822457,85.2720083 89.679585,86.599995 89.0075817,87.592 C88.3355783,88.584005 87.5462529,89.3413307 86.6395817,89.864 C85.7329105,90.3866693 84.6929209,90.7279992 83.5195817,90.888 C82.3462425,91.0480008 81.0022559,91.128 79.4875817,91.128 C78.4422431,91.128 77.5089191,91.032001 76.6875817,90.84 C75.8662442,90.647999 75.1675846,90.3706685 74.5915817,90.008 C73.930245,89.5813312 73.4609164,89.064003 73.1835817,88.456 C72.906247,87.847997 72.7462486,87.1973368 72.7035817,86.504 C72.6609148,85.8106632 72.703581,85.0960037 72.8315817,84.36 C72.9595823,83.6239963 73.0982476,82.9040035 73.2475817,82.2 C73.5249164,80.9839939 73.8395799,79.7253398 74.1915817,78.424 C74.5435834,77.1226602 74.9009132,75.8480062 75.2635817,74.6 C75.6262502,73.3519938 75.9835799,72.1733389 76.3355817,71.064 C76.6875834,69.9546611 76.9915804,68.962671 77.2475817,68.088 C78.4422543,67.9813328 79.5942428,67.9226667 80.7035817,67.912 C81.8129206,67.9013333 82.8155772,67.9386662 83.7115817,68.024 Z M116.625987,67.64 C115.559315,69.581343 114.519325,71.4639909 113.505987,73.288 C112.492649,75.1120091 111.479325,76.9466574 110.465987,78.792 C109.452649,80.6373426 108.417992,82.5359902 107.361987,84.488 C106.305982,86.4400098 105.191326,88.5146557 104.017987,90.712 C102.865981,90.6479997 101.788659,90.6213333 100.785987,90.632 C99.7833152,90.6426667 98.7913252,90.6906662 97.8099869,90.776 C98.2153223,89.9439958 98.6579845,89.0160051 99.1379869,87.992 C99.6179893,86.9679949 100.135317,85.8906723 100.689987,84.76 C100.476653,84.8026669 100.193989,84.8133334 99.8419869,84.792 C99.4899852,84.7706666 99.2179879,84.7813331 99.0259869,84.824 C98.9193197,84.1839968 98.7859877,83.2453395 98.6259869,82.008 C98.4659861,80.7706605 98.311321,79.3680078 98.1619869,77.8 C98.0126528,76.2319922 97.8686543,74.5626755 97.7299869,72.792 C97.5913196,71.0213245 97.4899872,69.3040083 97.4259869,67.64 C97.9593229,67.5759997 98.5299839,67.5280002 99.1379869,67.496 C99.74599,67.4639998 100.359317,67.448 100.977987,67.448 C101.596657,67.448 102.204651,67.4639998 102.801987,67.496 C103.399323,67.5280002 103.953984,67.5759997 104.465987,67.64 C104.380653,68.4506707 104.321987,69.2986622 104.289987,70.184 C104.257987,71.0693378 104.241987,71.9599955 104.241987,72.856 C104.241987,73.7520045 104.257987,74.637329 104.289987,75.512 C104.321987,76.386671 104.369987,77.2186627 104.433987,78.008 C104.839322,77.1546624 105.271318,76.2746712 105.729987,75.368 C106.188656,74.4613288 106.636651,73.5600045 107.073987,72.664 C107.511322,71.7679955 107.937985,70.9093374 108.353987,70.088 C108.769989,69.2666626 109.159318,68.5146701 109.521987,67.832 C110.78066,67.6613325 111.980648,67.5706667 113.121987,67.56 C114.263326,67.5493333 115.431314,67.5759997 116.625987,67.64 Z M119.222797,90.616 C119.948134,88.5679898 120.652127,86.5840096 121.334797,84.664 C122.017467,82.7439904 122.705461,80.8453427 123.398797,78.968 C124.092134,77.0906573 124.81746,75.2293426 125.574797,73.384 C126.332135,71.5386574 127.148126,69.6666762 128.022797,67.768 C129.21747,67.6613328 130.321459,67.608 131.334797,67.608 C132.348136,67.608 133.441458,67.6506662 134.614797,67.736 C134.657464,68.4826704 134.705464,69.2826624 134.758797,70.136 C134.812131,70.9893376 134.870797,71.8586622 134.934797,72.744 C134.998798,73.6293378 135.06813,74.4986624 135.142797,75.352 C135.217464,76.2053376 135.297464,77.0159962 135.382797,77.784 C136.342802,76.2479923 137.292126,74.6053421 138.230797,72.856 C139.169469,71.1066579 140.118793,69.4640077 141.078797,67.928 C141.718801,67.8426662 142.294795,67.7786669 142.806797,67.736 C143.3188,67.6933331 143.825462,67.6666667 144.326797,67.656 C144.828133,67.6453333 145.340128,67.6506666 145.862797,67.672 C146.385467,67.6933334 146.966794,67.7253331 147.606797,67.768 C147.37213,69.6026758 147.142799,71.4853237 146.918797,73.416 C146.694796,75.3466763 146.470799,77.2879902 146.246797,79.24 C146.022796,81.1920098 145.804132,83.1173238 145.590797,85.016 C145.377463,86.9146762 145.174798,88.7386579 144.982797,90.488 C143.958792,90.4453331 142.998802,90.4453331 142.102797,90.488 C141.206793,90.5306669 140.246803,90.5733331 139.222797,90.616 C139.265464,89.7839958 139.308131,88.8826715 139.350797,87.912 C139.393464,86.9413285 139.436131,85.960005 139.478797,84.968 C139.521464,83.975995 139.569464,83.0000048 139.622797,82.04 C139.676131,81.0799952 139.734797,80.1840042 139.798797,79.352 C138.774792,81.1866758 137.756136,83.0586571 136.742797,84.968 C135.729459,86.8773429 134.678803,88.727991 133.590797,90.52 C133.185462,90.4986666 132.844132,90.4826667 132.566797,90.472 C132.289463,90.4613333 132.028132,90.456 131.782797,90.456 C131.537463,90.456 131.286799,90.4666666 131.030797,90.488 C130.774796,90.5093334 130.465466,90.5306666 130.102797,90.552 C130.017464,89.677329 129.942798,88.7706714 129.878797,87.832 C129.814797,86.8933286 129.756131,85.9440048 129.702797,84.984 C129.649464,84.0239952 129.612131,83.0746714 129.590797,82.136 C129.569464,81.1973286 129.558797,80.290671 129.558797,79.416 C128.556126,81.4853437 127.734801,83.4426574 127.094797,85.288 C126.454794,87.1333426 125.793467,88.9199914 125.110797,90.648 C124.086792,90.5413328 123.105469,90.4933333 122.166797,90.504 C121.228126,90.5146667 120.246803,90.5519997 119.222797,90.616 Z M156.617203,77.624 C157.150539,77.5386662 157.753199,77.4800002 158.425203,77.448 C159.097206,77.4159998 159.774533,77.3893334 160.457203,77.368 C161.139873,77.3466666 161.801199,77.3413333 162.441203,77.352 C163.081206,77.3626667 163.646533,77.3786666 164.137203,77.4 C163.902535,78.2106707 163.68387,78.9573299 163.481203,79.64 C163.278535,80.3226701 163.027871,81.0693293 162.729203,81.88 C162.259867,81.8586666 161.694539,81.8373334 161.033203,81.816 C160.371866,81.7946666 159.694539,81.7893333 159.001203,81.8 C158.307866,81.8106667 157.635873,81.8266666 156.985203,81.848 C156.334533,81.8693334 155.774538,81.8906666 155.305203,81.912 C155.134535,82.4666694 154.96387,83.010664 154.793203,83.544 C154.622535,84.077336 154.45187,84.6213306 154.281203,85.176 C154.793205,85.176 155.401199,85.1653334 156.105203,85.144 C156.809206,85.1226666 157.534532,85.0960002 158.281203,85.064 C159.027873,85.0319998 159.769199,84.9893336 160.505203,84.936 C161.241206,84.8826664 161.907866,84.8240003 162.505203,84.76 C162.121201,85.7626717 161.721205,86.7279954 161.305203,87.656 C160.889201,88.5840046 160.425205,89.5386618 159.913203,90.52 C158.846531,90.5840003 157.721209,90.6266666 156.537203,90.648 C155.353197,90.6693334 154.185208,90.6853333 153.033203,90.696 C151.881197,90.7066667 150.787874,90.7066667 149.753203,90.696 C148.718531,90.6853333 147.827873,90.68 147.081203,90.68 C147.550538,88.8026573 148.0092,86.9360093 148.457203,85.08 C148.905205,83.2239907 149.3692,81.3573427 149.849203,79.48 C150.329205,77.6026573 150.8412,75.7146762 151.385203,73.816 C151.929205,71.9173238 152.521199,69.9760099 153.161203,67.992 C154.270541,67.8213325 155.481196,67.6880005 156.793203,67.592 C158.105209,67.4959995 159.433196,67.4266669 160.777203,67.384 C162.121209,67.3413331 163.449196,67.3253333 164.761203,67.336 C166.073209,67.3466667 167.273197,67.3626666 168.361203,67.384 C167.934534,68.4293386 167.513205,69.4959946 167.097203,70.584 C166.681201,71.6720054 166.270538,72.749328 165.865203,73.816 C165.331867,73.7946666 164.718539,73.784 164.025203,73.784 C163.331866,73.784 162.611873,73.7946666 161.865203,73.816 C161.118532,73.8373334 160.387873,73.8639998 159.673203,73.896 C158.958532,73.9280002 158.313205,73.9759997 157.737203,74.04 C157.545202,74.6160029 157.353204,75.207997 157.161203,75.816 C156.969202,76.424003 156.78787,77.0266637 156.617203,77.624 Z M169.403608,84.696 C169.894277,84.696 170.336939,84.7813325 170.731608,84.952 C171.126276,85.1226675 171.451607,85.3519986 171.707608,85.64 C171.963609,85.9280014 172.144941,86.2639981 172.251608,86.648 C172.358275,87.0320019 172.358275,87.4479978 172.251608,87.896 C172.144941,88.3440022 171.958276,88.7653314 171.691608,89.16 C171.42494,89.5546686 171.09961,89.8959986 170.715608,90.184 C170.331606,90.4720014 169.89961,90.6959992 169.419608,90.856 C168.939605,91.0160008 168.454277,91.096 167.963608,91.096 C166.939603,91.0533331 166.150277,90.7226698 165.595608,90.104 C165.040938,89.4853302 164.84894,88.738671 165.019608,87.864 C165.126275,87.4159978 165.323606,86.9946686 165.611608,86.6 C165.899609,86.2053314 166.240939,85.8640014 166.635608,85.576 C167.030276,85.2879986 167.462272,85.0640008 167.931608,84.904 C168.400944,84.7439992 168.891605,84.6746666 169.403608,84.696 Z M178.542013,84.696 C179.032682,84.696 179.475344,84.7813325 179.870013,84.952 C180.264682,85.1226675 180.590012,85.3519986 180.846013,85.64 C181.102014,85.9280014 181.283346,86.2639981 181.390013,86.648 C181.49668,87.0320019 181.49668,87.4479978 181.390013,87.896 C181.283346,88.3440022 181.096681,88.7653314 180.830013,89.16 C180.563345,89.5546686 180.238015,89.8959986 179.854013,90.184 C179.470011,90.4720014 179.038015,90.6959992 178.558013,90.856 C178.078011,91.0160008 177.592682,91.096 177.102013,91.096 C176.078008,91.0533331 175.288683,90.7226698 174.734013,90.104 C174.179344,89.4853302 173.987346,88.738671 174.158013,87.864 C174.26468,87.4159978 174.462012,86.9946686 174.750013,86.6 C175.038015,86.2053314 175.379344,85.8640014 175.774013,85.576 C176.168682,85.2879986 176.600677,85.0640008 177.070013,84.904 C177.539349,84.7439992 178.030011,84.6746666 178.542013,84.696 Z M187.680418,84.696 C188.171087,84.696 188.61375,84.7813325 189.008418,84.952 C189.403087,85.1226675 189.728417,85.3519986 189.984418,85.64 C190.24042,85.9280014 190.421751,86.2639981 190.528418,86.648 C190.635086,87.0320019 190.635086,87.4479978 190.528418,87.896 C190.421751,88.3440022 190.235086,88.7653314 189.968418,89.16 C189.70175,89.5546686 189.37642,89.8959986 188.992418,90.184 C188.608416,90.4720014 188.176421,90.6959992 187.696418,90.856 C187.216416,91.0160008 186.731087,91.096 186.240418,91.096 C185.216413,91.0533331 184.427088,90.7226698 183.872418,90.104 C183.317749,89.4853302 183.125751,88.738671 183.296418,87.864 C183.403086,87.4159978 183.600417,86.9946686 183.888418,86.6 C184.17642,86.2053314 184.51775,85.8640014 184.912418,85.576 C185.307087,85.2879986 185.739083,85.0640008 186.208418,84.904 C186.677754,84.7439992 187.168416,84.6746666 187.680418,84.696 Z" id="BUY-ME..…" fill="#FFFFFF"></path>
        </g>
    </g>
</svg>