<?xml version="1.0" encoding="UTF-8"?>
<svg width="240px" height="176px" viewBox="0 0 240 176" version="1.1" xmlns="http://www.w3.org/2000/svg" xmlns:xlink="http://www.w3.org/1999/xlink">
    <!-- Generator: Sketch 42 (36781) - http://www.bohemiancoding.com/sketch -->
    <title>02B</title>
    <desc>Created with Sketch.</desc>
    <defs></defs>
    <g id="Landingpage" stroke="none" stroke-width="1" fill="none" fill-rule="evenodd">
        <g id="02B">
            <g id="Page-1-Copy-5" transform="translate(120.000000, 87.668394) scale(-1, 1) translate(-120.000000, -87.668394) ">
                <path d="M195.839876,139.209575 C196.853347,138.626363 197.615627,138.182425 198.381637,137.747192 C209.001326,131.699938 218.506819,124.424083 225.930653,115.034238 C240.953658,96.0356891 244.452933,75.5610777 233.74371,53.7670881 C226.594694,39.2166218 214.620808,28.5484352 200.265575,20.2155855 C173.609409,4.73993782 144.262259,-0.868352332 113.241326,0.107813472 C93.0353161,0.742010363 73.5679585,4.63050777 55.1053679,12.4311295 C38.5515855,19.4259482 23.9153161,28.8904041 13.138943,42.8265699 C0.30080829,59.4300933 -3.65235233,77.5979689 3.61106736,97.2618031 C8.96443523,111.755067 19.2881658,122.882114 32.2854715,131.867813 C56.258114,148.442736 83.6927254,155.427606 113.056041,156.71714 C127.140187,157.335171 141.102466,156.178694 154.921741,153.521285 C155.783503,153.355896 156.92257,153.432995 157.652518,153.838383 C174.612933,163.24315 192.737285,169.74056 212.230756,172.60315 C219.463088,173.663876 228.370446,174.366466 235.668684,175.031751 C235.755731,174.758176 235.841534,174.484601 235.927337,174.211026 C218.658528,167.042114 205.44485,154.108228 195.839876,139.209575" id="Fill-1" fill="#FEFEFE"></path>
                <path d="M239.003813,175.031751 C238.922984,175.337658 235.791793,174.989472 235.668684,175.031751 C228.370446,174.366466 219.463088,173.663876 212.230756,172.60315 C192.737285,169.74056 174.612933,163.24315 157.652518,153.838383 C156.92257,153.432995 155.783503,153.355896 154.921741,153.521285 C141.102466,156.178694 127.140187,157.335171 113.056041,156.71714 C83.6927254,155.427606 56.258114,148.442736 32.2854715,131.867813 C19.2881658,122.882114 8.96443523,111.755067 3.61106736,97.2618031 C-3.65235233,77.5979689 0.30080829,59.4300933 13.138943,42.8265699 C23.9153161,28.8904041 38.5515855,19.4259482 55.1053679,12.4311295 C73.5679585,4.63050777 93.0353161,0.742010363 113.241326,0.107813472 C144.262259,-0.868352332 173.609409,4.73993782 200.265575,20.2155855 C214.620808,28.5484352 226.594694,39.2166218 233.74371,53.7670881 C244.452933,75.5610777 240.953658,96.0356891 225.930653,115.034238 C218.506819,124.424083 209.001326,131.699938 198.381637,137.747192 C197.615627,138.182425 196.853347,138.626363 195.839876,139.209575 C205.44485,154.108228 221.733762,167.862839 239.003813,175.031751 Z" id="Fill-3" fill="#000000"></path>
            </g>
            <path d="M61.1211764,76.856 C62.699851,76.9626672 63.9318387,76.7653358 64.8171764,76.264 C65.7025142,75.7626642 66.2731752,75.074671 66.5291764,74.2 C66.6571771,73.8159981 66.6838435,73.4693349 66.6091764,73.16 C66.5345094,72.8506651 66.3478446,72.6053342 66.0491764,72.424 C65.7505083,72.2426658 65.3131793,72.152 64.7371764,72.152 C64.1611736,72.152 63.446514,72.2586656 62.5931764,72.472 C62.3371752,73.2186704 62.086511,73.9493298 61.8411764,74.664 C61.5958419,75.3786702 61.3558443,76.1093296 61.1211764,76.856 Z M57.9211764,85.88 C58.8385144,86.0080006 59.6598395,86.034667 60.3851764,85.96 C61.1105134,85.885333 61.7345072,85.7306678 62.2571764,85.496 C62.7798457,85.2613322 63.2065081,84.9573352 63.5371764,84.584 C63.8678448,84.2106648 64.0971758,83.8000022 64.2251764,83.352 C64.4598443,82.5413293 64.1718472,81.9226688 63.3611764,81.496 C62.5505057,81.0693312 61.2065192,81.0053318 59.3291764,81.304 C59.0945086,82.1146707 58.8598443,82.8773298 58.6251764,83.592 C58.3905086,84.3066702 58.1558443,85.0693293 57.9211764,85.88 Z M51.2971764,90.104 C51.809179,88.2479907 52.3158406,86.4186757 52.8171764,84.616 C53.3185123,82.8133243 53.8358404,81.0106757 54.3691764,79.208 C54.9025124,77.4053243 55.4571736,75.5866758 56.0331764,73.752 C56.6091793,71.9173242 57.2278398,70.029343 57.8891764,68.088 C58.8918481,67.7893318 60.0171702,67.544001 61.2651764,67.352 C62.5131827,67.159999 63.681171,67.0426669 64.7691764,67 C65.3878462,67 66.0331731,67.0213331 66.7051764,67.064 C67.3771798,67.1066669 68.0225067,67.2133325 68.6411764,67.384 C69.2811796,67.5546675 69.8731737,67.7946651 70.4171764,68.104 C70.9611792,68.4133349 71.4251745,68.797331 71.8091764,69.256 C72.1931784,69.714669 72.4705089,70.2533302 72.6411764,70.872 C72.811844,71.4906698 72.8438436,72.1946627 72.7371764,72.984 C72.6518427,73.6240032 72.4331782,74.2533302 72.0811764,74.872 C71.7291747,75.4906698 71.2811792,76.066664 70.7371764,76.6 C70.1931737,77.133336 69.5745132,77.6133312 68.8811764,78.04 C68.1878396,78.4666688 67.4571803,78.7866656 66.6891764,79 C67.3291796,79.0853338 67.9371736,79.2506654 68.5131764,79.496 C69.0891793,79.7413346 69.5905076,80.0719979 70.0171764,80.488 C70.4438452,80.9040021 70.7585088,81.4053304 70.9611764,81.992 C71.1638441,82.5786696 71.2011771,83.2453296 71.0731764,83.992 C70.8385086,85.3360067 70.2785142,86.503995 69.3931764,87.496 C68.5078387,88.488005 67.3611835,89.2613306 65.9531764,89.816 C65.3771736,90.0506678 64.7585131,90.2426659 64.0971764,90.392 C63.4358398,90.5413341 62.7798464,90.6586662 62.1291764,90.744 C61.4785065,90.8293338 60.8545128,90.8933331 60.2571764,90.936 C59.6598401,90.9786669 59.1265121,91 58.6571764,91 C56.9291678,91.0426669 55.4731824,90.9573344 54.2891764,90.744 C53.1051705,90.5306656 52.1078472,90.3173344 51.2971764,90.104 Z M84.2115817,68.024 C83.8489132,69.1333389 83.4489172,70.3653266 83.0115817,71.72 C82.5742462,73.0746734 82.1475838,74.455993 81.7315817,75.864 C81.3155796,77.272007 80.9209169,78.6586598 80.5475817,80.024 C80.1742465,81.3893402 79.859583,82.6266611 79.6035817,83.736 C79.4969145,84.1840022 79.4915812,84.5306654 79.5875817,84.776 C79.6835822,85.0213346 79.8275807,85.2026661 80.0195817,85.32 C80.2115826,85.4373339 80.4355804,85.5066666 80.6915817,85.528 C80.947583,85.5493334 81.1929138,85.56 81.4275817,85.56 C81.8755839,85.5386666 82.2649134,85.4960003 82.5955817,85.432 C82.92625,85.3679997 83.2195804,85.2506675 83.4755817,85.08 C83.731583,84.9093325 83.9502474,84.6800014 84.1315817,84.392 C84.3129159,84.1039986 84.4782476,83.7360022 84.6275817,83.288 C84.9902502,82.2426614 85.368913,81.0426734 85.7635817,79.688 C86.1582503,78.3333266 86.5369132,76.9466738 86.8995817,75.528 C87.2622502,74.1093262 87.6035801,72.7173402 87.9235817,71.352 C88.2435833,69.9866598 88.5209138,68.7493389 88.7555817,67.64 C90.1422553,67.5333328 91.3689097,67.4853333 92.4355817,67.496 C93.5022537,67.5066667 94.6009094,67.5653328 95.7315817,67.672 C95.4115801,68.8453392 95.0809167,70.1039933 94.7395817,71.448 C94.3982466,72.7920067 94.0409169,74.1626597 93.6675817,75.56 C93.2942465,76.9573403 92.9102503,78.3439931 92.5155817,79.72 C92.120913,81.0960069 91.720917,82.3919939 91.3155817,83.608 C90.7822457,85.2720083 90.179585,86.599995 89.5075817,87.592 C88.8355783,88.584005 88.0462529,89.3413307 87.1395817,89.864 C86.2329105,90.3866693 85.1929209,90.7279992 84.0195817,90.888 C82.8462425,91.0480008 81.5022559,91.128 79.9875817,91.128 C78.9422431,91.128 78.0089191,91.032001 77.1875817,90.84 C76.3662442,90.647999 75.6675846,90.3706685 75.0915817,90.008 C74.430245,89.5813312 73.9609164,89.064003 73.6835817,88.456 C73.406247,87.847997 73.2462486,87.1973368 73.2035817,86.504 C73.1609148,85.8106632 73.203581,85.0960037 73.3315817,84.36 C73.4595823,83.6239963 73.5982476,82.9040035 73.7475817,82.2 C74.0249164,80.9839939 74.3395799,79.7253398 74.6915817,78.424 C75.0435834,77.1226602 75.4009132,75.8480062 75.7635817,74.6 C76.1262502,73.3519938 76.4835799,72.1733389 76.8355817,71.064 C77.1875834,69.9546611 77.4915804,68.962671 77.7475817,68.088 C78.9422543,67.9813328 80.0942428,67.9226667 81.2035817,67.912 C82.3129206,67.9013333 83.3155772,67.9386662 84.2115817,68.024 Z M117.125987,67.64 C116.059315,69.581343 115.019325,71.4639909 114.005987,73.288 C112.992649,75.1120091 111.979325,76.9466574 110.965987,78.792 C109.952649,80.6373426 108.917992,82.5359902 107.861987,84.488 C106.805982,86.4400098 105.691326,88.5146557 104.517987,90.712 C103.365981,90.6479997 102.288659,90.6213333 101.285987,90.632 C100.283315,90.6426667 99.2913252,90.6906662 98.3099869,90.776 C98.7153223,89.9439958 99.1579845,89.0160051 99.6379869,87.992 C100.117989,86.9679949 100.635317,85.8906723 101.189987,84.76 C100.976653,84.8026669 100.693989,84.8133334 100.341987,84.792 C99.9899852,84.7706666 99.7179879,84.7813331 99.5259869,84.824 C99.4193197,84.1839968 99.2859877,83.2453395 99.1259869,82.008 C98.9659861,80.7706605 98.811321,79.3680078 98.6619869,77.8 C98.5126528,76.2319922 98.3686543,74.5626755 98.2299869,72.792 C98.0913196,71.0213245 97.9899872,69.3040083 97.9259869,67.64 C98.4593229,67.5759997 99.0299839,67.5280002 99.6379869,67.496 C100.24599,67.4639998 100.859317,67.448 101.477987,67.448 C102.096657,67.448 102.704651,67.4639998 103.301987,67.496 C103.899323,67.5280002 104.453984,67.5759997 104.965987,67.64 C104.880653,68.4506707 104.821987,69.2986622 104.789987,70.184 C104.757987,71.0693378 104.741987,71.9599955 104.741987,72.856 C104.741987,73.7520045 104.757987,74.637329 104.789987,75.512 C104.821987,76.386671 104.869987,77.2186627 104.933987,78.008 C105.339322,77.1546624 105.771318,76.2746712 106.229987,75.368 C106.688656,74.4613288 107.136651,73.5600045 107.573987,72.664 C108.011322,71.7679955 108.437985,70.9093374 108.853987,70.088 C109.269989,69.2666626 109.659318,68.5146701 110.021987,67.832 C111.28066,67.6613325 112.480648,67.5706667 113.621987,67.56 C114.763326,67.5493333 115.931314,67.5759997 117.125987,67.64 Z M119.722797,90.616 C120.448134,88.5679898 121.152127,86.5840096 121.834797,84.664 C122.517467,82.7439904 123.205461,80.8453427 123.898797,78.968 C124.592134,77.0906573 125.31746,75.2293426 126.074797,73.384 C126.832135,71.5386574 127.648126,69.6666762 128.522797,67.768 C129.71747,67.6613328 130.821459,67.608 131.834797,67.608 C132.848136,67.608 133.941458,67.6506662 135.114797,67.736 C135.157464,68.4826704 135.205464,69.2826624 135.258797,70.136 C135.312131,70.9893376 135.370797,71.8586622 135.434797,72.744 C135.498798,73.6293378 135.56813,74.4986624 135.642797,75.352 C135.717464,76.2053376 135.797464,77.0159962 135.882797,77.784 C136.842802,76.2479923 137.792126,74.6053421 138.730797,72.856 C139.669469,71.1066579 140.618793,69.4640077 141.578797,67.928 C142.218801,67.8426662 142.794795,67.7786669 143.306797,67.736 C143.8188,67.6933331 144.325462,67.6666667 144.826797,67.656 C145.328133,67.6453333 145.840128,67.6506666 146.362797,67.672 C146.885467,67.6933334 147.466794,67.7253331 148.106797,67.768 C147.87213,69.6026758 147.642799,71.4853237 147.418797,73.416 C147.194796,75.3466763 146.970799,77.2879902 146.746797,79.24 C146.522796,81.1920098 146.304132,83.1173238 146.090797,85.016 C145.877463,86.9146762 145.674798,88.7386579 145.482797,90.488 C144.458792,90.4453331 143.498802,90.4453331 142.602797,90.488 C141.706793,90.5306669 140.746803,90.5733331 139.722797,90.616 C139.765464,89.7839958 139.808131,88.8826715 139.850797,87.912 C139.893464,86.9413285 139.936131,85.960005 139.978797,84.968 C140.021464,83.975995 140.069464,83.0000048 140.122797,82.04 C140.176131,81.0799952 140.234797,80.1840042 140.298797,79.352 C139.274792,81.1866758 138.256136,83.0586571 137.242797,84.968 C136.229459,86.8773429 135.178803,88.727991 134.090797,90.52 C133.685462,90.4986666 133.344132,90.4826667 133.066797,90.472 C132.789463,90.4613333 132.528132,90.456 132.282797,90.456 C132.037463,90.456 131.786799,90.4666666 131.530797,90.488 C131.274796,90.5093334 130.965466,90.5306666 130.602797,90.552 C130.517464,89.677329 130.442798,88.7706714 130.378797,87.832 C130.314797,86.8933286 130.256131,85.9440048 130.202797,84.984 C130.149464,84.0239952 130.112131,83.0746714 130.090797,82.136 C130.069464,81.1973286 130.058797,80.290671 130.058797,79.416 C129.056126,81.4853437 128.234801,83.4426574 127.594797,85.288 C126.954794,87.1333426 126.293467,88.9199914 125.610797,90.648 C124.586792,90.5413328 123.605469,90.4933333 122.666797,90.504 C121.728126,90.5146667 120.746803,90.5519997 119.722797,90.616 Z M157.117203,77.624 C157.650539,77.5386662 158.253199,77.4800002 158.925203,77.448 C159.597206,77.4159998 160.274533,77.3893334 160.957203,77.368 C161.639873,77.3466666 162.301199,77.3413333 162.941203,77.352 C163.581206,77.3626667 164.146533,77.3786666 164.637203,77.4 C164.402535,78.2106707 164.18387,78.9573299 163.981203,79.64 C163.778535,80.3226701 163.527871,81.0693293 163.229203,81.88 C162.759867,81.8586666 162.194539,81.8373334 161.533203,81.816 C160.871866,81.7946666 160.194539,81.7893333 159.501203,81.8 C158.807866,81.8106667 158.135873,81.8266666 157.485203,81.848 C156.834533,81.8693334 156.274538,81.8906666 155.805203,81.912 C155.634535,82.4666694 155.46387,83.010664 155.293203,83.544 C155.122535,84.077336 154.95187,84.6213306 154.781203,85.176 C155.293205,85.176 155.901199,85.1653334 156.605203,85.144 C157.309206,85.1226666 158.034532,85.0960002 158.781203,85.064 C159.527873,85.0319998 160.269199,84.9893336 161.005203,84.936 C161.741206,84.8826664 162.407866,84.8240003 163.005203,84.76 C162.621201,85.7626717 162.221205,86.7279954 161.805203,87.656 C161.389201,88.5840046 160.925205,89.5386618 160.413203,90.52 C159.346531,90.5840003 158.221209,90.6266666 157.037203,90.648 C155.853197,90.6693334 154.685208,90.6853333 153.533203,90.696 C152.381197,90.7066667 151.287874,90.7066667 150.253203,90.696 C149.218531,90.6853333 148.327873,90.68 147.581203,90.68 C148.050538,88.8026573 148.5092,86.9360093 148.957203,85.08 C149.405205,83.2239907 149.8692,81.3573427 150.349203,79.48 C150.829205,77.6026573 151.3412,75.7146762 151.885203,73.816 C152.429205,71.9173238 153.021199,69.9760099 153.661203,67.992 C154.770541,67.8213325 155.981196,67.6880005 157.293203,67.592 C158.605209,67.4959995 159.933196,67.4266669 161.277203,67.384 C162.621209,67.3413331 163.949196,67.3253333 165.261203,67.336 C166.573209,67.3466667 167.773197,67.3626666 168.861203,67.384 C168.434534,68.4293386 168.013205,69.4959946 167.597203,70.584 C167.181201,71.6720054 166.770538,72.749328 166.365203,73.816 C165.831867,73.7946666 165.218539,73.784 164.525203,73.784 C163.831866,73.784 163.111873,73.7946666 162.365203,73.816 C161.618532,73.8373334 160.887873,73.8639998 160.173203,73.896 C159.458532,73.9280002 158.813205,73.9759997 158.237203,74.04 C158.045202,74.6160029 157.853204,75.207997 157.661203,75.816 C157.469202,76.424003 157.28787,77.0266637 157.117203,77.624 Z M169.903608,84.696 C170.394277,84.696 170.836939,84.7813325 171.231608,84.952 C171.626276,85.1226675 171.951607,85.3519986 172.207608,85.64 C172.463609,85.9280014 172.644941,86.2639981 172.751608,86.648 C172.858275,87.0320019 172.858275,87.4479978 172.751608,87.896 C172.644941,88.3440022 172.458276,88.7653314 172.191608,89.16 C171.92494,89.5546686 171.59961,89.8959986 171.215608,90.184 C170.831606,90.4720014 170.39961,90.6959992 169.919608,90.856 C169.439605,91.0160008 168.954277,91.096 168.463608,91.096 C167.439603,91.0533331 166.650277,90.7226698 166.095608,90.104 C165.540938,89.4853302 165.34894,88.738671 165.519608,87.864 C165.626275,87.4159978 165.823606,86.9946686 166.111608,86.6 C166.399609,86.2053314 166.740939,85.8640014 167.135608,85.576 C167.530276,85.2879986 167.962272,85.0640008 168.431608,84.904 C168.900944,84.7439992 169.391605,84.6746666 169.903608,84.696 Z M179.138013,84.696 C179.628682,84.696 180.071344,84.7813325 180.466013,84.952 C180.860682,85.1226675 181.186012,85.3519986 181.442013,85.64 C181.698014,85.9280014 181.879346,86.2639981 181.986013,86.648 C182.09268,87.0320019 182.09268,87.4479978 181.986013,87.896 C181.879346,88.3440022 181.692681,88.7653314 181.426013,89.16 C181.159345,89.5546686 180.834015,89.8959986 180.450013,90.184 C180.066011,90.4720014 179.634015,90.6959992 179.154013,90.856 C178.674011,91.0160008 178.188682,91.096 177.698013,91.096 C176.674008,91.0533331 175.884683,90.7226698 175.330013,90.104 C174.775344,89.4853302 174.583346,88.738671 174.754013,87.864 C174.86068,87.4159978 175.058012,86.9946686 175.346013,86.6 C175.634015,86.2053314 175.975344,85.8640014 176.370013,85.576 C176.764682,85.2879986 177.196677,85.0640008 177.666013,84.904 C178.135349,84.7439992 178.626011,84.6746666 179.138013,84.696 Z M188.276418,84.696 C188.767087,84.696 189.20975,84.7813325 189.604418,84.952 C189.999087,85.1226675 190.324417,85.3519986 190.580418,85.64 C190.83642,85.9280014 191.017751,86.2639981 191.124418,86.648 C191.231086,87.0320019 191.231086,87.4479978 191.124418,87.896 C191.017751,88.3440022 190.831086,88.7653314 190.564418,89.16 C190.29775,89.5546686 189.97242,89.8959986 189.588418,90.184 C189.204416,90.4720014 188.772421,90.6959992 188.292418,90.856 C187.812416,91.0160008 187.327087,91.096 186.836418,91.096 C185.812413,91.0533331 185.023088,90.7226698 184.468418,90.104 C183.913749,89.4853302 183.721751,88.738671 183.892418,87.864 C183.999086,87.4159978 184.196417,86.9946686 184.484418,86.6 C184.77242,86.2053314 185.11375,85.8640014 185.508418,85.576 C185.903087,85.2879986 186.335083,85.0640008 186.804418,84.904 C187.273754,84.7439992 187.764416,84.6746666 188.276418,84.696 Z" id="BUY-ME….." fill="#FFFFFF"></path>
        </g>
    </g>
</svg>