<svg xmlns="http://www.w3.org/2000/svg" width="117" height="48" viewBox="0 0 117 48">
  <path d="M57.1137441,0.496551724 C60.7180095,0.496551724 70.9763033,2.45517241 70.9763033,12.4965517 C70.9763033,20.5793103 67.0947867,22.9793103 64.0450237,23.5310345 C61.8270142,23.9448276 70.4218009,23.5310345 70.4218009,33.6551724 C70.4218009,48 57.9454976,47.4482759 57.9454976,47.4482759 L37.1516588,47.4482759 L37.1516588,0.496551724 L57.1137441,0.496551724 Z M48.7962085,11.944824 L48.7962085,19.0344828 L55.7274882,19.0344828 C55.7274882,19.0344828 58.5,18.7034483 58.5,15.3103448 C58.5,11.9172414 55.7274882,11.944824 55.7274882,11.944824 L48.7962085,11.944824 Z M48.7962085,29.2413793 L48.7962085,36.4137931 L55.7274882,36.4137931 C55.7274882,36.4137931 58.5,36.137931 58.5,32.5517241 C58.5,29.2413793 55.7274882,29.2413793 55.7274882,29.2413793 L48.7962085,29.2413793 Z M92.8791469,0 C106.200726,0 117,10.745166 117,24 C117,37.254834 106.200726,48 92.8791469,48 C79.5575676,48 68.7582938,37.254834 68.7582938,24 C68.7582938,10.745166 79.5575676,0 92.8791469,0 Z M13.0308057,0.496551724 L13.0308057,18.2068966 L21.3483412,18.2068966 L21.3483412,0.496551724 L34.3791469,0.496551724 L34.3791469,47.4482759 L21.3483412,47.4482759 L21.3483412,30.0689655 L13.0308057,30.0689655 L13.0308057,47.4482759 L0,47.4482759 L0,0.496551724 L13.0308057,0.496551724 Z M92.8791469,12.137931 C86.2949181,12.137931 80.957346,17.4487602 80.957346,24 C80.957346,30.5512398 86.2949181,35.862069 92.8791469,35.862069 C99.4633758,35.862069 104.800948,30.5512398 104.800948,24 C104.800948,17.4487602 99.4633758,12.137931 92.8791469,12.137931 Z M92.8791469,14.3448276 C98.238403,14.3448276 102.582938,18.6675955 102.582938,24 C102.582938,29.3324045 98.238403,33.6551724 92.8791469,33.6551724 C87.5198909,33.6551724 83.1753555,29.3324045 83.1753555,24 C83.1753555,18.6675955 87.5198909,14.3448276 92.8791469,14.3448276 Z"/>
</svg>
