<svg xmlns="http://www.w3.org/2000/svg" width="330" height="273" viewBox="0 0 330 273">
  <path fill="#cec000" fill-rule="evenodd" d="M327.553075,55.3871045 C335.978923,78.7056128 311.994311,104.382735 273.23813,117.689616 C281.745076,128.637694 285.338342,141.821596 281.953072,154.455597 C278.540234,167.192482 268.705529,176.867053 255.708314,182.067642 C258.46051,189.121278 259.103031,196.661499 257.136015,204.002501 C253.702656,216.815971 243.080619,226.179899 229.400794,230.272643 C231.325742,235.924009 231.674972,241.932653 230.101101,247.806422 C225.169608,266.211002 203.224765,276.321958 181.085922,270.389872 C175.285094,268.835545 170.046515,266.334011 165.562511,263.157279 L164.679379,262.764106 C164.542615,262.701055 164.458343,262.659806 164.426541,262.640295 C153.434173,265.864698 134.082181,261.756481 132.671107,261.378385 C132.298376,261.278512 131.927905,261.17666 131.559739,261.072883 C132.080051,261.641958 132.60481,262.238096 133.134605,262.861802 C114.369416,272.761146 86.5593152,274.249971 69.9333244,270.773698 L69.1761254,270.598899 C58.9174928,268.177629 42.2199765,262.103336 27.123001,248.949945 L26.1038798,247.885529 C9.47915744,230.366579 -5.95593679,206.262979 3.96434265,169.239992 C9.95663112,146.876467 28.7504198,128.12965 34.2919598,125.602443 L34.8606386,123.531826 C37.4926901,114.056704 39.8141435,107.204103 41.5884051,102.716544 L41.4272645,102.670347 C44.7821303,86.8192504 18.0546665,73.1258493 27.5996951,30.6370331 C34.5465292,4.71109494 57.8520545,-2.66791889 76.5894899,2.3527618 C96.0225172,7.55982576 110.27119,21.0510528 125.908654,55.0345614 L126.382948,56.0706498 C126.410334,56.1325412 126.437343,56.194076 126.463978,56.2552552 C136.111016,58.9964174 144.743696,62.512361 151.794557,66.3502278 C169.846858,55.1121384 204.093178,41.3060904 229.925216,33.3689033 C291.542957,14.9348377 317.436016,29.5664301 327.553075,55.3871045 Z M227.974782,48.3754288 C205.526921,56.4703833 180.670009,68.0998729 153.404045,83.2638978 L153.195968,83.0677725 L153.194069,83.0700001 C144.821324,78.0654245 132.54723,73.0419858 118.490089,69.6299921 L114.626386,68.5947159 L106.658743,51.9659258 L107.185891,52.0599466 C97.0307284,34.6562898 85.7581215,21.7346229 71.4824594,17.548756 C57.5280619,14.2339875 46.0541889,20.296033 42.0885825,34.5193187 C38.4475643,48.6843424 45.3605457,73.4573915 54.331052,85.4223829 L54.1797236,85.2135031 C54.5198062,85.2016064 54.8596083,85.2391077 55.1987036,85.3293714 L58.394044,86.1728783 C58.8513425,86.2964418 59.2720912,86.4148375 59.6579093,86.5330792 C64.9208555,87.9160884 64.5977177,89.2050074 64.179779,91.1671698 L63.6439834,93.1525133 C61.0492252,102.885743 60.3621985,107.19767 58.9510021,108.486455 L58.4867091,110.441624 C57.9620056,112.68098 57.4086785,115.145961 56.8345714,117.861262 C49.3893342,144.270357 57.2413835,178.88909 80.1826985,200.727812 C83.1974254,203.729697 82.754265,210.734346 75.9214754,208.903506 C63.2366347,205.504613 42.2674587,186.968883 35.7389857,147.128918 L35.6063333,146.92845 C35.1542092,146.259981 34.6023979,145.628475 33.945208,146.215055 C29.287753,148.571609 21.522264,161.468129 17.4179539,176.985981 C15.0383764,188.27073 15.212862,198.579238 18.0878959,209.259053 C21.4956685,220.252044 27.9443068,231.610243 42.0094081,243.62126 C67.8610657,263.327802 102.806507,259.153003 111.694768,254.011186 C112.130151,253.71406 112.572515,253.455152 113.02186,253.234463 C103.27155,247.348647 97.9503971,240.27341 99.3999238,234.863703 C105.902905,227.038058 108.476595,239.552156 134.621541,246.37186 C143.167435,248.843794 148.337453,251.738716 152.527377,248.349937 C149.033399,241.461384 147.930436,233.784142 149.929257,226.324441 C152.048135,218.41668 157.307848,212.040005 164.374284,207.8091 C158.232851,198.612294 155.849491,187.911219 158.611581,177.602959 C161.037805,168.548168 167.053846,161.215979 175.20197,156.249224 C169.210226,146.397403 167.016607,135.214741 169.905676,124.432588 C176.480999,99.8931473 206.894016,86.7208795 237.83505,95.0115046 C246.582298,97.3553227 254.435307,101.163607 261.052015,105.975468 C297.127678,94.5169069 316.690981,78.5707669 311.959561,59.4910445 C307.258213,42.6598926 284.832703,28.5669586 227.974782,48.3754288 Z M178.309798,221.740918 C171.819187,223.208917 166.848112,227.016027 165.399924,232.420739 C162.969913,241.489663 171.379033,251.622532 184.18222,255.053135 C196.985406,258.483739 209.334353,253.912977 211.764363,244.844053 C212.884379,240.664096 211.701753,236.258117 208.84755,232.386542 C205.034202,232.099673 201.152302,231.448034 197.262217,230.405689 C190.460524,228.583181 184.277725,225.738763 178.92105,222.155546 L178.309798,221.740918 Z M188.017325,170.765676 L187.901855,170.815907 C182.298682,173.351003 178.238552,177.452017 176.823429,182.733331 C173.607238,194.736318 185.271171,208.290611 202.875552,213.007691 C220.479934,217.72477 237.358342,211.818375 240.574533,199.815388 C241.789177,195.282274 240.881451,190.527895 238.332907,186.111849 C230.566126,186.778572 222.313865,186.098024 214.023698,183.876681 C204.012687,181.194238 195.172972,176.593603 188.017325,170.765676 Z M233.389719,111.352762 C212.051074,105.635089 191.450184,113.325102 187.376343,128.528886 C183.302501,143.73267 197.298389,160.692861 218.637033,166.410534 C239.975677,172.128206 260.576567,164.438194 264.650409,149.23441 C268.724251,134.030626 254.728363,117.070434 233.389719,111.352762 Z"/>
</svg>
