<svg xmlns="http://www.w3.org/2000/svg" width="115" height="48" viewBox="0 0 115 48">
  <path fill-rule="evenodd" d="M69.4484211,36.7284211 C70.7275789,36.7284211 71.8762105,37.1065263 72.7949474,37.7945263 C73.04,37.9797895 73.1983158,37.8947368 73.1983158,37.5924211 L73.1983158,37.0256842 L75.5427368,37.0256842 L75.5427368,47.6808421 L73.1983158,47.6808421 L73.1983158,47.1141053 C73.1983158,46.8109474 73.04,46.7267368 72.7949474,46.9136842 C71.8762105,47.6016842 70.7275789,47.9789474 69.4484211,47.9789474 C66.3587368,47.9789474 63.8037895,45.7835789 63.8037895,42.352 C63.8037895,38.9237895 66.3587368,36.7284211 69.4484211,36.7284211 Z M33.7128421,36.7284211 C37.0374737,36.7284211 39.6362105,38.9237895 39.6362105,42.3536842 C39.6362105,45.7835789 37.0374737,47.9789474 33.7128421,47.9789474 C30.3882105,47.9789474 27.7886316,45.7835789 27.7886316,42.3536842 C27.7886316,38.9237895 30.3882105,36.7284211 33.7128421,36.7284211 Z M98.0202105,36.7284211 C101.344,36.7284211 103.945263,38.9237895 103.945263,42.3536842 C103.945263,45.7835789 101.344,47.9789474 98.0202105,47.9789474 C94.6938947,47.9789474 92.0943158,45.7835789 92.0943158,42.3536842 C92.0943158,38.9237895 94.6938947,36.7284211 98.0202105,36.7284211 Z M14.3461053,37.0282105 L14.3461053,47.6816842 L12.0033684,47.6816842 L12.0033684,39.6934737 C12.0033684,39.3187368 11.8425263,39.1578947 11.4703158,39.1578947 L7.84842105,39.1578947 C7.47621053,39.1578947 7.31536842,39.3187368 7.31536842,39.6934737 L7.31536842,47.6816842 L4.97263158,47.6816842 L4.97263158,37.0282105 L14.3461053,37.0282105 Z M86.5061053,37.0256842 L86.5061053,39.1553684 L83.5225263,39.1553684 C83.1494737,39.1553684 82.9894737,39.3178947 82.9894737,39.6926316 L82.9894737,47.6808421 L80.6458947,47.6808421 L80.6458947,39.6926316 C80.6458947,39.3178947 80.4858947,39.1553684 80.1128421,39.1553684 L77.1309474,39.1553684 L77.1309474,37.0256842 L86.5061053,37.0256842 Z M62.0193684,37.0256842 L62.0193684,47.6808421 L59.6749474,47.6808421 L59.6749474,39.6926316 C59.6749474,39.3178947 59.5166316,39.1553684 59.1444211,39.1553684 L57.8661053,39.1553684 C57.4922105,39.1553684 57.3330526,39.3178947 57.3330526,39.6926316 L57.3330526,47.6808421 L54.9903158,47.6808421 L54.9903158,39.6926316 C54.9903158,39.3178947 54.8303158,39.1553684 54.4572632,39.1553684 L53.1789474,39.1553684 C52.8050526,39.1553684 52.6450526,39.3178947 52.6450526,39.6926316 L52.6450526,47.6808421 L50.2989474,47.6808421 L50.2989474,37.0256842 L62.0193684,37.0256842 Z M90.3292632,37.0256842 L90.3292632,47.6808421 L87.984,47.6808421 L87.984,37.0256842 L90.3292632,37.0256842 Z M26.064,37.0273684 L26.064,39.1570526 L19.5654737,39.1570526 C19.1932632,39.1570526 19.0332632,39.3178947 19.0332632,39.6926316 L19.0332632,40.7536842 C19.0332632,41.1275789 19.1932632,41.2892632 19.5654737,41.2892632 L26.064,41.2892632 L26.064,43.4197895 L19.5654737,43.4197895 C19.1932632,43.4197895 19.0332632,43.5781053 19.0332632,43.9503158 L19.0332632,47.6808421 L16.6888421,47.6808421 L16.6888421,37.0273684 L26.064,37.0273684 Z M48.7511579,37.0256842 L48.7511579,39.1553684 L44.5970526,39.1553684 C44.2231579,39.1553684 44.0631579,39.3178947 44.0631579,39.6926316 L44.0631579,47.6808421 L41.7187368,47.6808421 L41.7187368,37.0256842 L48.7511579,37.0256842 Z M2.62821053,37.0256842 L2.62821053,47.6808421 L0.284631579,47.6808421 L0.284631579,37.0256842 L2.62821053,37.0256842 Z M114.771368,37.0256842 L114.771368,47.6791579 L112.426947,47.6791579 L112.426947,39.6926316 C112.426947,39.3178947 112.266947,39.1570526 111.893895,39.1570526 L108.272842,39.1570526 C107.899789,39.1570526 107.740632,39.3178947 107.740632,39.6926316 L107.740632,47.6791579 L105.395368,47.6791579 L105.395368,37.0256842 L114.771368,37.0256842 Z M69.7288421,38.8151579 C67.7448421,38.8151579 66.1886316,40.2029474 66.1886316,42.352 C66.1886316,44.5061053 67.7448421,45.8913684 69.7288421,45.8913684 C71.7077895,45.8913684 73.2631579,44.5061053 73.2631579,42.352 C73.2631579,40.2029474 71.7077895,38.8151579 69.7288421,38.8151579 Z M33.7128421,38.8168421 C31.7313684,38.8168421 30.176,40.2012632 30.176,42.3536842 C30.176,44.5061053 31.7313684,45.8913684 33.7128421,45.8913684 C35.6934737,45.8913684 37.2496842,44.5061053 37.2496842,42.3536842 C37.2496842,40.2012632 35.6934737,38.8168421 33.7128421,38.8168421 Z M98.0202105,38.8168421 C96.0378947,38.8168421 94.4825263,40.2012632 94.4825263,42.3536842 C94.4825263,44.5061053 96.0378947,45.8913684 98.0202105,45.8913684 C100.001684,45.8913684 101.557053,44.5061053 101.557053,42.3536842 C101.557053,40.2012632 100.001684,38.8168421 98.0202105,38.8168421 Z M15.9789474,20.0168421 C19.2976842,20.0168421 21.8947368,22.2096842 21.8947368,25.6345263 C21.8947368,29.0635789 19.2976842,31.2564211 15.9789474,31.2564211 C12.6568421,31.2564211 10.0606316,29.0635789 10.0606316,25.6345263 C10.0606316,22.2096842 12.6568421,20.0168421 15.9789474,20.0168421 Z M9.72042105,20.3149474 L9.72042105,22.4421053 L6.74021053,22.4421053 C6.36715789,22.4421053 6.208,22.6037895 6.208,22.976 L6.208,30.9583158 L3.86778947,30.9583158 L3.86778947,22.976 C3.86778947,22.6037895 3.70778947,22.4421053 3.33473684,22.4421053 L0.355368421,22.4421053 L0.355368421,20.3149474 L9.72042105,20.3149474 Z M69.4113684,20.3149474 L69.4113684,22.4421053 L66.4311579,22.4421053 C66.0572632,22.4421053 65.8981053,22.6037895 65.8981053,22.976 L65.8981053,30.9583158 L63.5578947,30.9583158 L63.5578947,22.976 C63.5578947,22.6037895 63.3978947,22.4421053 63.0248421,22.4421053 L60.0463158,22.4421053 L60.0463158,20.3149474 L69.4113684,20.3149474 Z M42.6012632,20.3149474 L42.6012632,22.4421053 L38.4513684,22.4421053 C38.0774737,22.4421053 37.9174737,22.6037895 37.9174737,22.976 L37.9174737,30.9583158 L35.5764211,30.9583158 L35.5764211,20.3149474 L42.6012632,20.3149474 Z M58.9212632,20.3141053 L58.9212632,22.4421053 L52.4277895,22.4421053 C52.0547368,22.4421053 51.8955789,22.6012632 51.8955789,22.976 L51.8955789,24.0387368 C51.8955789,24.4109474 52.0547368,24.5709474 52.4277895,24.5709474 L58.9212632,24.5709474 L58.9212632,30.9583158 L49.5528421,30.9583158 L49.5528421,28.8294737 L56.0454737,28.8294737 C56.4185263,28.8294737 56.5793684,28.6694737 56.5793684,28.2981053 L56.5793684,27.232 C56.5793684,26.8606316 56.4185263,26.6989474 56.0454737,26.6989474 L49.5528421,26.6989474 L49.5528421,20.3141053 L58.9212632,20.3141053 Z M46.5448421,20.3149474 L46.5448421,30.9583158 L44.2063158,30.9583158 L44.2063158,20.3149474 L46.5448421,20.3149474 Z M25.9738947,20.3149474 L25.9738947,28.2964211 C25.9738947,28.6677895 26.1347368,28.8294737 26.5069474,28.8294737 L30.1237895,28.8294737 C30.4968421,28.8294737 30.6568421,28.6677895 30.6568421,28.2964211 L30.6568421,20.3149474 L32.9978947,20.3149474 L32.9978947,30.9566316 L23.6336842,30.9566316 L23.6336842,20.3149474 L25.9738947,20.3149474 Z M15.9789474,22.1027368 C13.9983158,22.1027368 12.4437895,23.4871579 12.4437895,25.6345263 C12.4437895,27.7869474 13.9983158,29.1696842 15.9789474,29.1696842 C17.9570526,29.1696842 19.5107368,27.7869474 19.5107368,25.6345263 C19.5107368,23.4871579 17.9570526,22.1027368 15.9789474,22.1027368 Z M13.7928421,3.29094737 C17.1132632,3.29094737 19.7077895,5.48294737 19.7077895,8.91031579 C19.7077895,12.3376842 17.1132632,14.5296842 13.7928421,14.5296842 C10.4715789,14.5296842 7.87452632,12.3376842 7.87452632,8.91031579 C7.87452632,5.48294737 10.4715789,3.29094737 13.7928421,3.29094737 Z M80.3191579,3.29094737 C81.5974737,3.29094737 82.7435789,3.66821053 83.6614737,4.35536842 C83.9082105,4.53978947 84.0656842,4.45726316 84.0656842,4.15410526 L84.0656842,3.58989474 L86.4050526,3.58989474 L86.4050526,14.2307368 L84.0656842,14.2307368 L84.0656842,13.6665263 C84.0656842,13.3625263 83.9082105,13.2791579 83.6614737,13.4644211 C82.7435789,14.1524211 81.5974737,14.5296842 80.3191579,14.5296842 C77.2328421,14.5296842 74.6795789,12.3376842 74.6795789,8.91031579 C74.6795789,5.48294737 77.2328421,3.29094737 80.3191579,3.29094737 Z M72.9322105,0.209684211 L72.9322105,14.2307368 L70.5936842,14.2307368 L70.5936842,13.6665263 C70.5936842,13.3625263 70.4362105,13.2791579 70.1886316,13.4644211 C69.2732632,14.1524211 68.1246316,14.5296842 66.8471579,14.5296842 C63.7616842,14.5296842 61.2075789,12.3376842 61.2075789,8.91031579 C61.2075789,5.48294737 63.7616842,3.29094737 66.8471579,3.29094737 C68.1246316,3.29094737 69.2732632,3.66821053 70.1886316,4.35536842 C70.4362105,4.53978947 70.5936842,4.45726316 70.5936842,4.15410526 L70.5936842,0.209684211 L72.9322105,0.209684211 Z M7.30105263,3.58989474 L7.30105263,5.71705263 L3.152,5.71705263 C2.77726316,5.71705263 2.61810526,5.87705263 2.61810526,6.25010526 L2.61810526,14.2307368 L0.278736842,14.2307368 L0.278736842,3.58989474 L7.30105263,3.58989474 Z M29.6471579,3.58989474 L29.6471579,5.71705263 L26.6677895,5.71705263 C26.2947368,5.71705263 26.1347368,5.87705263 26.1347368,6.25010526 L26.1347368,14.2307368 L23.7936842,14.2307368 L23.7936842,6.25010526 C23.7936842,5.87705263 23.6353684,5.71705263 23.2614737,5.71705263 L20.2829474,5.71705263 L20.2829474,3.58989474 L29.6471579,3.58989474 Z M40.16,3.58989474 L40.16,5.71705263 L37.1806316,5.71705263 C36.8075789,5.71705263 36.6484211,5.87705263 36.6484211,6.24926316 L36.6484211,14.2307368 L34.3090526,14.2307368 L34.3090526,6.25010526 C34.3090526,5.87705263 34.1482105,5.71705263 33.776,5.71705263 L30.7957895,5.71705263 L30.7957895,3.58989474 L40.16,3.58989474 Z M51.2690526,3.58989474 L51.2690526,5.71705263 L44.7789474,5.71705263 C44.4042105,5.71705263 44.2458947,5.87705263 44.2458947,6.24926316 L44.2458947,7.31368421 C44.2458947,7.68673684 44.4042105,7.84589474 44.7789474,7.84589474 L51.2690526,7.84589474 L51.2690526,9.97473684 L44.7789474,9.97473684 C44.4042105,9.97473684 44.2458947,10.1338947 44.2458947,10.5069474 L44.2458947,11.5696842 C44.2458947,11.9435789 44.4042105,12.1027368 44.7789474,12.1027368 L51.2690526,12.1027368 L51.2690526,14.2307368 L41.904,14.2307368 L41.904,3.58989474 L51.2690526,3.58989474 Z M60.6332632,3.58989474 L60.6332632,5.71705263 L56.4842105,5.71705263 C56.1094737,5.71705263 55.9503158,5.87705263 55.9503158,6.24926316 L55.9503158,14.2307368 L53.6092632,14.2307368 L53.6092632,3.58989474 L60.6332632,3.58989474 Z M100.453053,3.58905263 L100.453053,14.2307368 L98.1103158,14.2307368 L98.1103158,6.24926316 C98.1103158,5.87705263 97.9511579,5.71705263 97.5797895,5.71705263 L96.3031579,5.71705263 C95.9309474,5.71705263 95.7717895,5.87705263 95.7717895,6.24926316 L95.7717895,14.2307368 L93.4315789,14.2307368 L93.4315789,6.24926316 C93.4315789,5.87705263 93.2698947,5.71705263 92.8968421,5.71705263 L91.6218947,5.71705263 C91.2454737,5.71705263 91.0871579,5.87705263 91.0871579,6.24926316 L91.0871579,14.2307368 L88.7452632,14.2307368 L88.7452632,3.58989474 L100.453053,3.58905263 Z M13.7928421,5.376 C11.8130526,5.376 10.2593684,6.76042105 10.2593684,8.91031579 C10.2593684,11.0593684 11.8130526,12.4429474 13.7928421,12.4429474 C15.7717895,12.4429474 17.3246316,11.0593684 17.3246316,8.91031579 C17.3246316,6.76042105 15.7717895,5.376 13.7928421,5.376 Z M67.1250526,5.376 C65.1444211,5.376 63.5898947,6.76042105 63.5898947,8.91031579 C63.5898947,11.0593684 65.1444211,12.4429474 67.1250526,12.4429474 C69.1031579,12.4429474 70.6576842,11.0593684 70.6576842,8.91031579 C70.6576842,6.76042105 69.1031579,5.376 67.1250526,5.376 Z M80.5962105,5.376 C78.6164211,5.376 77.0610526,6.76042105 77.0610526,8.91031579 C77.0610526,11.0593684 78.6164211,12.4429474 80.5962105,12.4429474 C82.5743158,12.4429474 84.1288421,11.0593684 84.1288421,8.91031579 C84.1288421,6.76042105 82.5743158,5.376 80.5962105,5.376 Z"/>
</svg>
