<svg xmlns="http://www.w3.org/2000/svg" width="643" height="46" viewBox="0 0 643 46">
  <path d="M458.869468,2.94857143 L458.869468,11.8971429 L391.741436,11.8971429 C390.166676,11.8971429 389.597154,13.4091429 389.597154,14.736 L389.597154,36.4902857 C389.597154,37.8171429 390.420559,38.6948571 391.741436,38.6948571 L458.869468,38.6948571 L458.869468,47.6468571 L391.741436,47.6468571 C384.423431,47.6468571 379.445266,42.6034286 379.445266,35.2251429 L379.445266,16.0628571 C379.445266,7.61485714 383.037367,2.94857143 391.741436,2.94857143 L458.869468,2.94857143 Z M76.11,2.94514286 C83.112367,2.94514286 86.1418085,9.62742857 86.1418085,15.8057143 L86.1418085,20.976 C86.1418085,28.7931429 81.4724202,34.4708571 73.3344415,34.4708571 L13.085266,34.4708571 L13.085266,47.6434286 L2.86132979,47.6434286 L2.86132979,2.94514286 L76.11,2.94514286 Z M168.221489,2.94171429 C175.096915,2.94171429 180.081941,7.16571429 180.081941,14.2285714 L180.081941,36.36 C180.081941,43.4262857 175.096915,47.6434286 168.221489,47.6434286 L108.473218,47.6434286 C101.597793,47.6434286 96.612766,43.4262857 96.612766,36.36 L96.612766,14.2285714 C96.612766,7.16571429 101.597793,2.94171429 108.473218,2.94171429 L168.221489,2.94171429 Z M264.683298,2.94514286 C269.918777,2.94514286 274.715106,6.41142857 274.715106,11.8971429 L274.715106,23.4994286 C274.715106,28.3542857 270.927447,30.936 266.638883,32.0742857 C272.821277,34.9748571 274.08383,41.4034286 274.715106,47.6434286 L264.683298,47.6434286 C264.240718,40.8994286 261.338218,34.4708571 253.581064,34.4708571 L201.342926,34.4708571 L201.342926,47.6434286 L191.12242,47.6434286 L191.12242,2.94514286 L264.683298,2.94514286 Z M367.262314,2.94857143 L367.262314,11.8971429 L299.255984,11.8971429 C296.542181,11.8971429 295.406569,13.8514286 295.406569,16.4365714 C295.406569,18.8948571 296.669122,20.7874286 299.255984,20.7874286 L354.712261,20.7874286 C363.797154,20.7874286 368.716995,25.1382857 368.716995,34.4057143 C368.716995,42.1611429 364.555372,47.6434286 356.48258,47.6434286 L286.767686,47.6434286 L286.767686,38.6914286 L354.715691,38.6914286 C357.04867,38.6914286 358.060771,36.6754286 358.060771,34.5942857 C358.060771,32.2045714 357.559867,29.6777143 354.715691,29.6777143 L297.111702,29.6777143 C289.666755,29.6777143 285.378191,23.9417143 285.378191,16.8171429 C285.378191,7.92685714 290.17109,2.94857143 299.259415,2.94857143 L367.262314,2.94857143 Z M480.130452,2.94514286 L480.130452,20.3451429 L539.50133,20.3451429 L539.50133,2.94514286 L550.034043,2.94514286 L550.034043,47.6434286 L539.50133,47.6434286 L539.50133,29.2971429 L480.130452,29.2971429 L480.130452,47.6434286 L469.844761,47.6434286 L469.844761,2.94514286 L480.130452,2.94514286 Z M644.732394,2.94514286 L644.732394,11.8971429 L571.041144,11.8971429 L571.041144,20.5371429 L644.732394,20.5371429 L644.732394,29.424 L571.041144,29.424 L571.041144,38.6914286 L644.732394,38.6914286 L644.732394,47.6434286 L560.824069,47.6434286 L560.824069,2.94514286 L644.732394,2.94514286 Z M164.625957,11.8971429 L112.765213,11.8971429 C109.547074,11.8971429 106.960213,13.2857143 106.960213,16.8788571 L106.960213,33.7097143 C106.960213,37.3062857 109.60883,38.6914286 112.765213,38.6914286 L164.625957,38.6914286 C167.77891,38.6914286 170.365771,37.3062857 170.365771,33.7097143 L170.365771,16.8788571 C170.365771,13.2857143 167.844096,11.8971429 164.625957,11.8971429 Z M71.3788564,11.9005714 L13.085266,11.9005714 L13.085266,25.5154286 L71.3788564,25.5154286 C73.9039628,25.5154286 76.11,24.5074286 76.11,21.6685714 L76.11,16.6285714 C76.11,13.6662857 74.3431117,11.9005714 71.3788564,11.9005714 Z M260.645186,11.8937143 L201.342926,11.8937143 L201.342926,25.5154286 L262.161622,25.5154286 C264.178963,25.5154286 264.683298,23.8114286 264.683298,22.1108571 L264.683298,16.056 C264.683298,13.1554286 263.612872,11.8937143 260.645186,11.8937143 Z" transform="translate(-2 -2)"/>
</svg>
