<svg xmlns="http://www.w3.org/2000/svg" width="450" height="48" viewBox="0 0 450 48">
  <path d="M75.0745098,6.36423376e-13 C88.8784314,6.36423376e-13 98.7294118,10.1333333 98.7294118,23.9372549 C98.7294118,37.7411765 88.8784314,47.8745098 75.0745098,47.8745098 C61.2078431,47.8745098 51.4196078,37.7411765 51.4196078,23.9372549 C51.4196078,10.1333333 61.2078431,6.36423376e-13 75.0745098,6.36423376e-13 Z M31.7176471,0.752941176 L31.7176471,7.90588235 L8.1254902,7.90588235 L8.1254902,19.8588235 L31.2156863,19.8588235 L31.2156863,26.9803922 L8.1254902,26.9803922 L8.1254902,47.0588235 L6.38199733e-13,47.0588235 L6.38199733e-13,0.752941176 L31.7176471,0.752941176 Z M128.721569,0.752941176 L152.407843,32.8156863 L152.407843,0.752941176 L160.501961,0.752941176 L160.501961,47.0588235 L152.658824,47.0588235 L128.533333,13.9607843 L128.533333,47.0588235 L120.407843,47.0588235 L120.407843,0.752941176 L128.721569,0.752941176 Z M218.415686,0.752941176 L218.415686,7.90588235 L204.392157,7.90588235 L204.392157,47.0588235 L196.266667,47.0588235 L196.266667,7.90588235 L182.243137,7.90588235 L182.243137,0.752941176 L218.415686,0.752941176 Z M260.172549,0.784313725 L278.368627,47.0588235 L269.113725,47.0588235 L265.72549,38.1176471 L244.486275,38.1176471 L241.066667,47.0588235 L231.843137,47.0588235 L250.039216,0.784313725 L260.172549,0.784313725 Z M307.513725,0.752941176 L331.168627,32.8156863 L331.168627,0.752941176 L339.294118,0.752941176 L339.294118,47.0588235 L331.45098,47.0588235 L307.294118,13.9607843 L307.294118,47.0588235 L299.2,47.0588235 L299.2,0.752941176 L307.513725,0.752941176 Z M396.235294,0.752941176 L396.235294,7.90588235 L372.643137,7.90588235 L372.643137,19.8588235 L395.733333,19.8588235 L395.733333,26.9803922 L372.643137,26.9803922 L372.643137,39.9058824 L396.235294,39.9058824 L396.235294,47.0588235 L364.517647,47.0588235 L364.517647,0.752941176 L396.235294,0.752941176 Z M428.956863,0.752941176 L428.956863,39.9058824 L449.380392,39.9058824 L449.380392,47.0588235 L420.862745,47.0588235 L420.862745,0.752941176 L428.956863,0.752941176 Z M75.0745098,7.21568627 C65.6941176,7.21568627 59.7333333,14.3686275 59.7333333,23.9372549 C59.7333333,33.4431373 65.6941176,40.6588235 75.0745098,40.6588235 C84.3921569,40.6588235 90.4156863,33.4431373 90.4156863,23.9372549 C90.4156863,14.3686275 84.3921569,7.21568627 75.0745098,7.21568627 Z M255.090196,8.87843137 L246.776471,30.9333333 L263.435294,30.9333333 L255.090196,8.87843137 Z"/>
</svg>
